<svg version="1.1" xmlns="http://www.w3.org/2000/svg" xmlns:xlink="http://www.w3.org/1999/xlink" x="0" y="0" width="1000" height="1000" viewBox="0, 0, 1616, 1216"><style type="text/css">	.st0{fill:#E3B119;}	.st1{fill:#FEF3CD;}	.st2{fill:#FAE683;}	.st3{fill:#FAE684;}	.st4{fill:#C58412;}	.st5{fill:#AA600A;}	.st6{fill:#FEF3CE;}	.st7{fill:#FEF4CF;}	.st8{opacity:0.2;enable-background:new    ;}	.st9{fill:#C58614;}	.st10{fill:#C58513;}	.st11{fill:#AC630F;}	.st12{fill:#F3F3F3;}	.st13{fill:#F1F1F1;}	.st14{opacity:0.2;fill:#231F20;enable-background:new    ;}	.st15{fill:#8F4B00;}	.st16{fill:#DF7500;}	.st17{fill:#C36701;}	.st18{fill:#F5AB19;}	.st19{fill:#FFFFFF;}	.st20{fill:#231F20;fill-opacity:0.2;}	.st21{fill:#E3C7B9;}	.st22{fill:#FCDDCD;}	.st23{fill:#BE5B04;}	.st24{fill:#CA9B86;}	.st25{fill:#904400;}	.st26{fill:#FDD265;}	.st27{fill:#DD9713;}	.st28{fill:#DD9611;}	.st29{fill:#FEF4D3;}	.st30{fill:#6D3909;}	.st31{fill:#F0F0F0;}	.st32{fill:#EBEBEB;}	.st33{fill:#944D39;}	.st34{fill:#C26B48;}	.st35{fill:#FECFAC;}	.st36{fill:#703321;}	.st37{fill:#733725;}	.st38{fill:#56291C;}	.st39{fill:#62370B;}	.st40{fill:#FEEBB9;}	.st41{fill:#CBA474;}	.st42{fill:#897043;}	.st43{fill:#FEECBA;}	.st44{fill:#FEECBC;}</style><g id="Slice">	<path class="st0" d="M267.3,89.6c0.1,2.2-0.4,4.2-1.2,6.2c-2,4.6-4.3,8.9-7.3,12.9c-1.1,1.5-2.4,2.7-4.3,3.2		c-2.8,0.8-5.4,2.1-8.3,2.6c-1.5,0.3-2.9,0-4.2-0.6c-3.4-1.7-6.8-3.6-10.1-5.6c-0.7-0.4-1.4-0.6-2.2-0.3		c-27.1,6-54.3,11.9-81.1,19.5c-7.9,2.3-15.4,5.7-23.2,8.5c-13.3,4.9-26.6,9.6-39.8,14.5c-5.9,2.2-11.4,5.1-17.1,7.9		c-6.1,2.9-12.1,6-17.9,9.4c-6.4,3.7-13.3,6.4-20.2,9.3c-1.1,0.4-2.2,0.9-3.2,1.4c-4.2,2.1-8.6,3.4-13.4,3.7		c-4.7,0.3-3.7,0.6-6.4-2.9c-1.7-2.1-3.4-4.3-4.8-6.7c-0.5-0.7-0.8-1.4-0.3-2.3c0.4-0.9,0.2-1.8-0.6-2.4c-0.7-0.5-0.6-1-0.4-1.6		c2.7-7.3,6.2-14.2,10.1-20.9c5.9-10.1,12.2-19.9,19.1-29.3c4.1-5.6,8.8-10.9,13.2-16.3c6.3-7.7,12.6-15.4,18.9-23.1		c0.5-0.7,1.2-1.3,1.8-1.9c8-8,16-15.9,23.9-24c5.8-5.9,12.3-11,18.5-16.4c1.4-1.2,2.8-2.5,4.3-3.6c0.5-0.4,0.6-0.8,0.4-1.4		c-2.8-10.3,2.9-20.3,11.9-24.9c2.5-1.3,5.2-2.2,8-2.7c1.9-0.4,3.7,0.4,5.5,0.8c13.5,3,26.8,6.5,40.2,9.9c1.7,0.4,3.2,1.4,4.8,2.2		c13.9,6.8,27.9,13.5,41.6,20.7c4.6,2.4,8.5,5.9,12.5,9.1c4.4,3.5,8.7,7.3,13.1,10.9c3,2.5,5,5.8,7.5,8.7c2.3,2.8,4.5,5.6,6.8,8.5		c0.5,0.6,0.9,1.3,1.1,2.1C265.8,79.3,267.2,84.3,267.3,89.6z"/>	<path class="st1" d="M188.9,19.8c2.3,0.6,3.1,1.6,3.1,3.8c0,0.8,0.4,1.1,1,1.3c1.2,0.4,2.5,0.6,3.5,1.6c0.3,0.3,0.6,0.5,0.5,0.9		s-0.6,0.3-0.9,0.3c-7.2,0.4-11.7,5.4-12.8,11.2c-0.3,1.6-0.1,3.2-0.2,4.7c-0.1,1.8-0.8,3.5-2.2,4.7c-0.2,0.2-0.4,0.5-0.8,0.3		c-0.4-0.2-0.1-0.5-0.1-0.8c0.3-2.5-0.5-3.8-2.9-4.7c-1.9-0.7-3.9-1-5.8-1.3c-1.3-0.2-2.6-0.4-3.7-1.2c-1-0.7-1.3,0.4-1.9,0.8		c-0.4-0.9-0.5-1.9-0.5-2.8c0-1.7-0.4-3.2-0.7-4.8c-0.6-2.8-0.7-5.6,0.6-8.3c0.7-1.5,1.6-2.7,2.9-3.6c3.6-2.6,7.4-3.8,11.9-2.9		c0.6,0.1,1.1-0.1,1.6-0.3c1.8-0.5,3.6-1.4,5.5-1.4c0.6,0,1.1,0.1,1.6,0.5C189.3,18.3,190,18.8,188.9,19.8z"/>	<path class="st1" d="M191.3,47.8c0.3-4.2,0.8-8.3,3.4-11.8c1.7-2.4,4-3.9,6.9-4.6c1.1-0.3,2.1-0.8,3.2,0c0.4,0.3,0.9,0.5,0.8,1.1		c-0.1,0.7-0.6,0.8-1.2,1c-3.5,1.2-6.7,2.6-8.3,6.3c-0.9,2.3-0.8,4.7-0.2,7c0.5,1.8,0.3,3.1-1.3,4.1c-0.3,0.2-0.4,0.5-0.5,0.7		c-0.6,1.2-1.5,1.2-2.3,0.1C191.2,50.5,191.3,49.1,191.3,47.8z"/>	<g>		<path class="st4" d="M4.9,177.6c0.7-1.3,0.5-0.9,1.8-0.3c1.9,0.9,3.6,2.5,6.1,1.8c2.6-0.8,5.2-1.6,7.7-2.8			c4.6-2.2,9.5-3.6,14.2-5.6c7.3-3.2,14.3-6.9,21.2-10.9c10.6-6.1,21.6-11.2,33-15.7c4.3-1.7,8.6-3.5,12.8-5.4			c3-1.4,9.1-3.5,12.1-4.9c24.5-10.6,47-17,73-23.1c5.4-1.3,10.6-2.8,15.9-4c7.1-1.6,14.2-3.1,21.3-4.5c1.6-0.3,3.4-0.3,5.1-0.6			c1.4-0.3,2.4-1.2,2.6-2.5c0.8-4.3,0.6-8.6,0.3-12.9c-0.1-1.1-0.6-1.9-1.5-2.6c-0.6-0.5-1.1-1.3-1.7-1.9			c-5.2-5.8-10.6-11.4-17.3-15.7c-4.6-2.9-9.4-5.6-14.1-8.2c-0.8-0.4-11.4-6.7-15.9-8.6c-8-3.3-14.5-7.8-22.6-10.7			c-0.8-0.3-1.5-0.5-2.3-0.6s-1.4-0.2-1.6-1.1c-0.1-0.5-0.6-0.5-1-0.6c-3.7-1.4-7.6-1.9-11.4-2.7c-7.5-1.6-14.9-3.5-22.3-5.2			c-0.7-0.1-1.1-0.1-1.6,0.5c-1.3,1.6-3.2,1.3-4.9,1c-1.4-0.3-2.2-1.5-2.2-3c0-0.5-0.3-0.9-0.8-1.1c-0.8-0.3-1.3-0.9-1.3-1.8			c0-1,0.6-1.5,1.4-1.9c2.2-0.9,4.4-1.3,6.7-1.5c6.2-0.4,12.1,1.1,18,2.8c11.7,3.3,23.5,6.4,35.1,10.1c14.8,4.8,28.3,12,40.8,21.2			c5.7,4.2,11.6,8.1,16.8,12.9c0.9,0.8,2.1,1.4,3.1,2.2c0.7,0.5,1.2,0.4,1.8-0.2c2.8-3.1,5.9-5.6,9.9-6.9c4.2-1.3,8.3-1.3,12.1,1.2			c1,0.6,2,0.6,2.9-0.3c0.4-0.5,0.6-0.3,1-0.1c2.3,1.5,3.1,3.9,2.3,6.6c-0.3,0.9-0.3,1.8,0.7,2.5c2.6,2,3.6,4.9,4.1,8			c0.3,1.4,0.5,2.8,0.9,4.1c0.8,3,0.5,5.9-0.5,8.8c-1.2,3.2-2.8,6.2-5,8.9c-1.5,1.9-3.1,3.9-4.6,5.9c-1,1.3-2.2,2.5-3.5,3.5			c-1.2,0.9-2.6,1.4-4.1,1.6c-2.6,0.3-5.1,0.9-7.6,1.3c-3.1,0.4-6-0.7-8.8-2c-1.3-0.6-2.1-1.7-2.5-3c-0.4-1-1-1.7-2-1.8			c-1.1-0.2-2.1,0.1-2.7,1.1c-0.4,0.7-0.9,0.4-1.4,0.4c-4.4,0.5-8.9,0.8-13.3,1.6c-7.1,1.2-14.1,2.7-21.1,4.6			c-2.9,0.8-6.1,1.1-9.1,1.8c-2.4,0.6-4.6,1.6-7,2.2c-13.8,3.4-27.3,7.8-40.6,12.5c-6.6,2.3-13.3,4.3-19.7,7.1			c-6.1,2.7-12,5.7-18,8.6c-0.9,0.4-2,0.8-2.8,1.3c-5.3,3.7-11.6,5.6-17.4,8.1c-5.9,2.6-12.1,4.8-17.9,7.6			c-8.2,3.9-16.6,7.3-24.6,11.7c-2.1,1.1-4.6,1.5-6.8,2.7c-3.2,1.8-6.6,2.5-10.2,3c-0.6,0.1-1.3,0-1.7,0.5c-0.3,0-0.7,0-1,0			c-1.7-1-3.6-1.3-5.5-1.7C6.3,180.6,5,179.1,4.9,177.6z"/>	</g>	<path class="st1" d="M2.5,164.2c0.3-0.9,0.5-2,1.2-2.9c0.2-0.2,0.2-0.7-0.1-0.8c-1-0.4-0.4-0.9-0.2-1.4c1.8-4.7,3.8-9.2,6.1-13.6		c0.4-0.9,0.8-1.8,1.2-2.6s0.8-1.5,1.7-2.1c1.1-0.7,1.5-2.1,2.1-3.2c1.9-3.5,4.5-6.6,6.8-9.8c1.1-1.5,2.2-3,2.8-4.8		c0.5-1.4,1.8-2.5,2.7-3.7c4.4-5.7,8.9-11.3,13.4-16.8c3.8-4.7,7.6-9.3,11.4-14c2.3-2.8,4.4-5.8,6.8-8.4c2.6-2.8,5.1-5.8,8.1-8.3		c1.9-1.7,3.8-3.5,5.4-5.5c1.8-2.1,3.7-4.1,5.5-6.1c0.9-1,2.2-1.8,2.8-2.8c0.9-1.6,2.4-2.6,3.4-4c1.6-2.2,19.8-17.3,19.8-17.7		c-0.1-0.4,0.4-0.6,0.6-0.8c0.3-0.3,0.6-0.4,0.9-0.7c0.8-0.8,1.5-1.7,2.7-0.5c0.2,0.3,0.6,0.3,0.9,0.1c1.8-1,3.6-0.8,5.6-0.7		c3.7,0.3,7.3,0.5,10.8,1.3c7.7,1.8,15.3,3.6,22.7,6.6c6.9,2.8,13.9,5.1,20.7,7.9c3.3,1.4,6.6,2.9,9.9,4.5		c10,4.8,19.7,10.2,28.9,16.5c5.7,3.9,10.6,8.7,15.1,13.8c0.5,0.6,1.2,1,1.5,1.8c0.9,2.3,0.1,3.1-2.1,4.1c-0.9,0.4-2,0.4-3,0.6		c-4.1,0.5-8.3,1.1-12.4,1.9c-15.1,2.8-29.9,7.2-44.7,11c-9.5,2.5-18.9,5.3-28.3,8c-13.7,3.9-27.3,8-40.7,12.7		c-6.9,2.4-13.7,5.2-20.4,8c-7.9,3.2-15.3,7.6-22.9,11.4c-7,3.4-14,7.1-20.7,11c-5.3,3.1-10.2,6.6-15,10.2c-1.6,1.2-3.2,2.4-5.1,3.1		c-2.3,0.4-4.6,0.9-6-1.8C2.5,165.2,2.5,164.7,2.5,164.2z M46.8,108.3c0.2,0.1,0.3,0.2,0.3,0.2c9-0.1,17.9,0.3,26.8-0.2		c3.7-0.2,7.3-0.2,11-0.3c13.5-0.1,27.1-0.1,40.6,0c0.8,0,1.5-0.1,2.2-0.3c4.2-1.5,8.3-2.9,12.5-4.4c11.7-4.1,23.6-7.5,35.4-10.8		c9.3-2.6,18.4-5.5,27.8-7.6c1.2-0.3,2.2-0.6,3.2-1.5c2.1-1.9,2.1-1.8,0.1-3.9c-4.6-4.8-9.9-8.7-15.4-12.2c-0.6-0.3-1.1-0.4-1.6-0.4		c-3.7,0.2-7.4,0.3-11.2,0.5c-2.9,0.2-5.9,0.3-8.8,0.4c-5.3,0.4-10.7,0.6-16,0.8c-2.6,0.1-5.3,0.3-8,0.3c-1.6,0.1-3.3,0.1-5,0.2		c-5,0.3-10,0.7-15,1c-2.4,0.2-4.9,0.3-7.3,0.5c-4.8,0.4-9.5,0.8-14.2,1.2c-3,0.3-6,0.5-9,0.8c-4.5,0.4-9,1-13.5,1		c-1.4,0-2.8,0-4.3,0c-0.7,0-1.3,0.2-1.8,0.8c-1.3,1.4-2.6,2.8-3.8,4.3c-2.8,3.1-5.6,6.2-8.4,9.4c-3.8,4.4-7.5,8.9-11.2,13.4		C50.4,103.6,48.7,105.9,46.8,108.3z M79.6,71C79.4,71,79.6,71,79.6,71c3.9-0.4,7.8-0.8,11.6-1.2c4.3-0.4,8.8-0.7,13.1-1.3		c5.6-0.8,11.3-1.1,16.9-1.7c4.4-0.4,8.8-0.7,13.3-1c4.2-0.3,8.4-0.6,12.6-0.8c3.3-0.1,6.6-0.3,9.9-0.5c4.6-0.2,9.2-0.5,13.8-0.8		c4.4-0.3,8.7-0.3,13.1-0.5c0.3,0,0.8,0.1,0.9-0.3c0.2-0.5-0.4-0.6-0.6-0.7c-3.1-1.9-6.2-3.8-9.3-5.6c-0.6-0.4-1.4-0.7-2.1-0.7		c-3.5,0.1-7,0.1-10.4,0.3c-4.9,0.3-9.8,0.6-14.6,1c-2.3,0.2-4.6,0.3-6.8,0.5c-3.7,0.3-7.3,0.7-11,1c-2.2,0.2-4.3,0.3-6.4,0.6		c-2.8,0.3-5.6,0.6-8.4,0.9c-2.8,0.3-5.7,0.5-8.5,0.8c-2.9,0.3-5.8,0.7-8.8,0.9S92,62.5,89,62.4c-0.6,0-1.1,0.2-1.6,0.6		c-1.3,1.2-2.7,2.4-3.9,3.7C82,68.2,80.8,69.6,79.6,71z M81.2,124.3c-1.8-0.2-3.6-0.3-5.3-0.3c-8.5-0.1-17-0.1-25.6,0.4		c-4.5,0.3-9,0.5-13.5,0.8c-1.2,0.1-2.5-0.1-3.4,1.3c-3.1,4.9-6.6,9.4-10.1,14c-4,5.2-7.7,10.7-11.2,16.3c-0.3,0.5-1,1.2-0.1,1.9		c0.8,0.6,1.2-0.1,1.7-0.5c2.1-1.4,4.2-3,6.4-4.4c6.1-3.8,12.4-7.3,18.7-10.7c6.8-3.7,13.7-7.4,20.7-10.6c2.3-1.1,4.8-2.2,7.3-3		C71.6,128,76.4,126.1,81.2,124.3z"/>	<path class="st5" d="M268.5,90.6c-0.5,5.1-1.8,9.8-4.6,14.1c-5.1,7.6-12.3,11.8-21.5,11.6c-5.1-0.1-9.6-1.9-12.8-6.2		c-0.4-0.6-0.9-0.4-1.4-0.3c-10.5,1.8-20.9,4-31.3,6.7c-26.3,6.8-52.4,13.9-77.9,23.2c-20.1,7.3-39.6,16-58.9,25.2		c-10.8,5.1-21.6,10.3-32.5,15.2c-4.2,1.9-8.6,3.7-13.3,4.2c-0.1,0-0.2,0.1-0.3,0.2c-0.8,0-1.7,0-2.5,0c-0.1-0.3-0.4-0.2-0.6-0.3		c-1.7-0.4-3.3-0.9-4.7-2.3C3,178.6,0.6,175,0,170.3c0-0.3,0.1-3.4,0.1-3.7c0.4-5.1,2.6-9.6,4.7-14.1c8.2-17.1,19.4-32.1,31.1-46.8		C42.1,98,48.3,90.4,54.8,83c7.7-8.8,15.8-17.3,24-25.6c8.6-8.7,17.3-17.1,26.7-24.8c1-0.9,2.1-1.7,3.1-2.5c0.4-0.3,0.7-0.6,0.5-1.1		c-1.3-4.5-0.4-8.9,1.5-13c3.2-7,8.2-12.4,15.5-15.3c2.2-0.9,4.3-0.8,6.5-0.7c14.6,0.6,28.1,5.5,41.6,10.5c15,5.5,29.6,12.1,43.5,20		c12.3,7,23.9,15,34.1,24.9c2.8,2.7,5.6,5.4,7.9,8.5c4.7,6.3,7.9,13.4,8.7,21.3C268.5,87.1,268.5,88.8,268.5,90.6z M256.6,67.8		c0.1,0,0.2,0,0.3,0c0-0.1-0.1-0.2-0.1-0.2c0-0.5-0.3-0.8-0.6-1.2c-0.9-1.3-2.1-2.3-3.2-3.5c-5.3-5.7-11-10.9-17.3-15.5		C224.3,39,212.1,32,199.4,25.8C187.9,20.2,176,15.6,164,11.3c-9.4-3.4-19-6.3-28.9-7.5c-4.7-0.6-9-0.1-12.8,2.9		c-1.7,1.3-3.3,2.7-4.7,4.4c-3.7,4.6-6,9.6-5.7,15.7c0.1,1,0.4,1.4,1.4,1.2c0.9-0.1,1.8-0.2,2.8-0.1c6,0.3,11.9,1,17.8,2.4		c15.5,3.7,30.2,9.5,44.6,16.2c10.3,4.8,20.3,10,29.5,16.7c7.9,5.7,15.4,11.8,22.3,18.8c1.7,1.7,2.9,3.4,2.3,5.9c-0.1,0.5,0,1,0,1.5		c0,2.1-0.1,4.3-0.2,6.4c-0.3,3.2-1,6.4-1,9.7c0,0.3-0.1,0.8,0.2,1.1c2.1,2.2,4.2,4.3,7.4,5.1c7,1.7,13.1-0.2,18.2-5		c6.6-6.3,8.3-14.3,7.1-23.2c-0.6-4.3-2.2-7.9-5.7-10.6c-3.5-2.6-7.4-3.3-11.6-2.5c-2.2,0.4-3.9,1.8-5.5,3.3		c-1.7,1.6-3.6,2.8-5.1,4.6c-0.3,0.3-0.8,0.8-1.3,0.4c-0.4-0.4,0.1-0.8,0.4-1.2c1.8-2.5,3.6-5.1,5.9-7.2c2.9-2.7,6.3-4,10.3-3.7		C253.2,66.8,254.9,67.2,256.6,67.8z M13.1,181.4c2.9-0.3,6.3-1.3,9.5-2.7c15.4-6.6,30.6-13.7,45.7-21c22.1-10.7,44.8-19.9,68-27.6		c21.4-7.1,43.2-13,65-18.7c8.4-2.2,16.9-3.9,25.5-5.6c0.6-0.1,1.1-0.1,1.1-1c0.4-6.2,1.4-12.3,1.5-18.4c0-0.9-0.2-1.5-0.9-2.1		c-2.4-1.8-4.6-3.8-6.8-5.9c-4.1-3.9-8.4-7.6-12.9-11C198.9,60,188.1,54.2,177,49c-12.3-5.8-25-10.7-38.1-14.5		c-7.1-2.1-14.4-3.1-21.8-3.8c-1.3-0.1-2.8-0.5-4,0.3c-4.3,2.8-8.5,6-12.4,9.4c-10.2,8.8-19.5,18.4-28.8,28.1		c-11.9,12.3-23,25.3-33.7,38.8c-8.6,10.7-17,21.6-24.2,33.3c-4.1,6.7-7.8,13.6-10.4,21c-1,2.9-1.8,5.8-1.2,8.9		c0.6,2.6,1.8,5,3.5,7.1C7.6,179.8,9.6,181.4,13.1,181.4z"/>	</g><g id="Cheese">	<path class="st8" d="M47.5,120.1c4-2.9,9.7-3.6,16.1-3.9c6.2-0.2,11.3,1.9,11.3,1.9l-2.6-15l-26.1,10L47.5,120.1z"/>	<path class="st8" d="M146.5,73c4.5-2.3,8.6-3,4.9-5.7c-3.7-2.7-7.9-2.3-5-5.8s5.9-4.5,10.4-3.8s22.5,7.7,23,11		c0.6,3.3-2.7-11.5-2.7-11.5l-26.6-8l-7.8,3l-2.8,13L146.5,73z"/>	<g>	<path class="st0" d="M211.5,68.2c-1.7-1.6-3.6-2.8-5.6-4c-9.7-5.5-19.4-11.1-29.1-16.5c-3-1.7-6.4-2.6-9.6-3.8			c-10.8-3.9-21.6-8-32.6-11.5c-3.9-1.2-7.9-1.4-11.9-1.9c-2.3-0.3-4.7-0.2-7-0.8c-0.9,0-1.8,0-2.8,0c0,0.2-0.1,0.4-0.2,0.4			c-4.8,2.3-8.4,6.2-12.3,9.7C84.7,54,70,69.2,55.3,84.3C44.1,96,34.2,108.8,25.6,122.5c-6.5,10.4-13.5,20.4-19.9,30.9			c-2.4,3.9-4.1,8.2-4.3,12.9c0,0.2,0,0.4-0.3,0.5c0,1.1,0,2.2,0,3.3c0.3,0.1,0.3,0.5,0.8,0.4c2.6-0.6,5.1-1.4,7.5-2.6			c3.9-2.1,8-4.1,11.9-6.3c2.5-1.4,4.2,0.1,4.8,2c0.8,2.4,0.9,4.9,1,7.4c0.1,2.6,0.1,5.1,0.2,7.7c0,1.2,0.3,2.1,1.4,2.6			c0.4,0.2,0.8,0.4,0.9,0.8c0.1,0,0.2,0,0.3,0c0.2-0.8,0.4-1.6,0.5-2.4c0.5-4.4,0.5-8.7,0.7-13.1c0.1-1.6,0.6-2.9,1.6-4.1			c1.3-1.8,3.1-2.8,5-3.7c2.6-1.3,4.2-3.2,4.8-6c0.1-0.3,0.2-0.6,0.3-0.9c0.1-0.5,0.4-0.8,0.8-1.2c6.6-4.7,14-7.8,21.2-11.3			c1.2-0.6,2.6,0,3.2,1.1c0.9,1.8,2,3.3,3.2,4.9c0.4,0.6,0.7,0.6,1.3,0.1c1.6-1.4,2.8-3,3.5-5c0.8-2.2,1.6-4.5,2.3-6.8			c0.2-0.7,0.6-1.1,1.2-1.5c3.8-2.2,7.5-4.3,11.2-6.6c2.3-1.5,4.8-2.3,7.4-2.7c0.6-0.1,0.9,0,1.2,0.6c0.8,1.7,1.6,3.3,2,5.1			c0.3,1.2,0.6,2.6,2.1,2.6c1.4,0.1,1.7-1.3,2.2-2.3c0.9-2.2,1.3-4.5,1.9-6.7c0.8-2.8,2.1-4.9,5.1-6c5.8-2.1,11.6-4.4,17.3-6.8			c1.8-0.8,3.6-0.7,5.4-0.4c1.9,0.3,3.1,1.4,3.6,3.2c0.3,1.1,0.6,2.1,0.7,3.2c0.2,1.4,0.4,2.8,1.2,4c0.5,0.8,1.1,1.4,2.1,1.3			c0.9-0.2,1.2-1.1,1.3-1.8c0.1-1.2,0.8-1.3,1.7-1.2c0.9,0.1,1.3,0.6,1.5,1.4c0.6,2.2,0.9,4.5,1.1,6.8c0.3,3.3,0.6,6.6,2.5,9.4			c0.3,0.5,0.6,1.2,1.2,1.1c0.7-0.1,0.7-0.8,0.8-1.4c0.4-2.1,0.6-4.2,0.5-6.3c-0.1-5.7-0.3-11.4-0.5-17.1c0-0.5-0.1-1,0.2-1.4			c1.4-2.1,2.6-4.3,3.8-6.4c0.8-1.4,1.9-2.5,3.6-2.7c2.1-0.2,4.2-0.8,6.2-1.2c11.9-2.4,23.7-5.8,35.8-7.2c0.8-0.1,1.2,0.1,1.6,0.7			c2.2,3.2,4.4,6.3,6.7,9.5c0.5,0.8,1.1,1.3,2.1,1.6c1.5,0.4,2.4-0.1,2.4-1.7c0.1-3.6,1.5-6.8,2.9-10c0.1-0.3,0.2-0.6,0.7-0.6			c1.2,0,1.9,0.7,2.1,1.9c0.1,0.6,0.2,1.2,0.3,1.7c1.3,7.3,2.1,14.7,4.3,21.8c0.4,1.2,0.7,2.4,1,3.7c1.3-1.2,1.6-2.6,1.7-4			c0.5-7,0.8-14.1,1.1-21.1c0.1-2-0.1-4,0.4-5.9c0-1.8,0-3.7,0-5.5C223.6,79.3,217.5,73.8,211.5,68.2z M74.9,118.1c0,0-0.2,0-0.5,0			c0.3,0.9-0.2,1.9-1.4,2.3c-1.2,0.4-2.3,0.8-3.3,1.6c-1,0.8-2.3,0.4-3.4,0.1c-1.2-0.4-2.3-0.5-3.6-0.4c-3.6,0.2-7.2-0.1-10.7-0.2			c-1.7,0-3.2-0.7-4.7-1.3c-1.6-0.7-1.7-3-0.2-3.6c1.7-0.6,3.3-1.6,5.1-2c1.3-0.7,2.3-1.2,2.3-1.2c4.5-0.3,11.7-0.3,11.7-0.3			l8.8,1.8L74.9,118.1L74.9,118.1z M179.1,70.8c-0.3,0.2-0.6,0.3-0.8,0.8c-0.5,1.8-1.9,2.6-3.6,3.1c-4.1,1.1-8.1,1.6-12.4,1.3			c-1.3,0-2.6,0-3.9,0c-0.3,0-0.6,0-0.9-0.1c-2.3-1.6-5-1-7.5-1.7c-2.9-0.8-3.6-2.2-2.1-4.8c0.7-1.2,2.3-1.2,3.4-2			c0.7-0.5-1-2.2-1.4-2.5c-1-0.9-2.2-1.7-3.1-2.7c-1.3-1.3-1.1-3.5,0.4-4.3c0.9-0.5,1.6-1.1,2.6-1.6c2.5-1.1,5.4-1,8.1-0.4			c6.5,1.4,12.6,3.9,18.4,7.1c1.9,1,3.1,2.5,3.7,4.5C180.5,68.9,180.2,69.9,179.1,70.8z"/>				<g>			<path class="st1" d="M148.6,68.7c0.8-0.6,1.9-0.7,2.8-1.4c0.6-0.4-0.6-1.7-1.1-2.3c-3.1-0.1-6.3-0.2-9.4-0.4				c-2.8-0.2-5.6-0.2-8.4-0.2c-8.3-0.1-16.5-0.2-24.8-0.8c-2-0.2-4.1-0.1-6.1-0.3c-1-0.1-2.1-0.1-3.1-0.3c-3.8-0.5-7.6-1-11.5-0.7				c-0.6,0-1.3,0.2-1.2,0.8c0.1,1-0.6,0.8-1.2,1c-1.3,0.2-2.7,0.5-3.9,1.2c-0.3,0.2-0.5,0.3-0.5,0.7c0.1,0.4,0.4,0.5,0.8,0.5				s0.7,0,1-0.1c0.9-0.1,1.8-0.4,2.7-0.3c4.1,0.5,8.2,0.8,12.3,0.9c5.2,0.2,10.4,0.3,15.6,0.5c2.8,0.1,5.7,0.1,8.5,0.2				c6.7,0.2,13.5,0.3,20.2,0.5C143.7,68.5,146.2,68.6,148.6,68.7z"/>			<path class="st1" d="M204.9,68.5c0-0.5-0.6-0.5-1-0.5c-3.1-0.5-6.2-0.7-9.3-0.7c-0.9,0-2.1,0.3-2.1-1.3c0-0.2-0.3-0.4-0.4-0.6				c-1.5-1.2-3.3-1.4-5-1.8c-0.5-0.1-1.1,0.2-1.5,0.6c-0.7,0.8-1.7,1.2-2.2,2.2c-0.1,0.3-0.4,0.5-0.8,0.4c-0.9-0.2-1.9-0.2-2.9-0.2				c0.2,0.4,0.4,0.8,0.5,1.3c0.3,0.9,0.2,1.7-0.2,2.3c0.4,0,0.7,0,1,0s0.6,0.1,0.9,0.1c1.8,0,3.6,0.6,5.4,0.7c0.9,0,1.6-0.7,2.4-0.5				c1.8,0.4,3.6-0.3,4.9,0c3.5,0.1,6.4-0.3,9.4-1.1C204.3,69,204.9,69,204.9,68.5z"/>		</g>				<g>			<path class="st11" d="M227.8,80.7c-2.2-2.5-5-4.2-7.4-6.5c-4.8-4.4-9.9-8.3-15.3-11.9c-15.3-10.1-31.9-17.6-49-24				c-9.5-3.5-19.1-6.8-29.3-8.2c-4.6-0.7-9.2-1.5-13.9-1c-0.9,0.1-1.7,0.3-2.4,0.8c-4.1,2.8-7.8,6-11.4,9.3				c-13.3,12-25.8,24.7-37.8,37.9c-12.7,13.9-24.7,28.5-36,43.6c-8.8,11.7-16.6,24-22.5,37.4c-1.3,3.1-2.8,6.2-2.9,9.7				c0,3,1.8,4.7,4.8,4.4c0.8-0.1,1.6-0.4,2.4-0.8c2.3-1,4.4-2.4,6.6-3.6c3.2-1.7,6.7-2.8,9.9-4.6c0.4-0.2,0.7-0.1,1,0.2				c0.5,0.6,1,1.1,1.2,1.9c0.5,1.6,0.6,3.1,0.5,4.7c-0.1,3.4-0.2,6.8,0.5,10.2c0.3,1.1,0.5,2.2,1.2,3.1c0.5,0.7,1.2,1,2.1,0.9				c0.8-0.1,1.2-0.7,1.4-1.4c0.3-0.9,0.5-1.8,0.7-2.7c0.5-3.4,0.5-6.9,0.5-10.4c0-1.9,0.4-3.9,1.3-5.5c1-1.8,2.1-3.6,4.5-3.9				c0.6-0.1,1.1-0.5,1.7-0.8c1.8-1,2.2-2.9,2.6-4.7c0.3-1.5,1.3-2.4,2.5-3.1c4.8-2.6,9.5-5.1,14.3-7.7c2-1.1,4-2.2,6-3.3				c0.3-0.2,0.7-0.3,0.9-0.3c0.2,0.4,0.2,1.2,0.3,2.4c0.2,2.3,0.5,4.6,1.8,6.5c0.6,0.8,2.8,1.5,3.8,1.4c4.8-0.4,2.7-3.8,4.5-9				c0.9-2.7,1.9-5.4,3.6-7.8c0.3-0.4,0.5-0.8,1-1.1c2.4-1.3,4.6-3.1,7.2-4.2c3-1.3,5.8-2.8,8.8-4.3c0.9-0.4,1.3-0.2,1.5,0.7				c0.2,1.1,0.3,2.1,0.5,3.2c0.2,1.3,0.5,2.6,1.5,3.6c1.5,1.6,3.8,1.3,4.8-0.5c0.5-0.8,0.7-1.8,0.9-2.7c0.8-3.2,2.2-6.2,3.8-9				c0.3-0.5,0.6-0.9,1.2-1.2c7.2-2.8,14.4-5.2,21.7-7.6c1.4-0.5,2.6,0.2,3.1,1.6c0.6,1.4,1,2.8,1.2,4.3c0.1,1.3,0.4,2.6,1.1,3.8				c0.5,1.1,1.2,2,2.4,2s2.1-0.7,2.9-1.7c0.3-0.4,0.4-0.8,0.7-1.2c0.2-0.3,0.4-0.7,0.9-0.6c0.5,0,0.5,0.5,0.6,0.8				c0.2,0.7,0.3,1.3,0.4,1.9c0.5,3.5,0.9,7,1.5,10.5c0.2,1.4,0.7,2.8,1.4,4.1c0.5,0.8,1.2,1.4,2.3,1.3c1-0.1,1.4-0.8,1.7-1.6				c0.6-1.5,1-3,1.1-4.6c0.5-6.1,0.4-12.2,0.1-18.3c-0.1-1.2-0.3-2.5,0.3-3.7c1.6-3.8,4.4-6.2,8.3-7.2c11.6-3.1,23.5-4.9,35.3-7.3				c3.4-0.7,7.2,1,8.2,4.6c0.3,0.9,0.6,1.8,0.9,2.7c0.6,1.7,1.4,3.1,2.8,4.2c1.7,1.4,3.7,1.1,4.9-0.7c1.3-1.9,1.7-4,2-6.2				c0.3-1.7,0.1-3.5,0.6-5.2c0.3-0.9,0.6-1.1,1.4-0.4c0.7,0.6,1.1,1.2,1.3,2c0.5,2.3,0.8,4.6,1.4,6.8c0.6,2.1,0.8,4.2,1,6.3				c0.4,3.4,0.3,6.8,0.9,10.2c0.2,0.9,0.5,1.7,1,2.4s1.1,0.8,1.9,0.6c1.6-0.5,2.8-2,3-3.7c0.7-6.2,0.4-12.4,0.8-18.6				c0.3-4.3,0.2-8.6,0-12.8C230.7,86.7,231,84.5,227.8,80.7z M227.6,101.2c-0.3,5.3-0.5,10.5-0.6,15.7c0,0.9,0,0.9-0.5,1.9				c-0.5-1.1-0.5-2.1-0.6-3.1c-0.5-5.2-0.8-10.3-2-15.4c-0.3-1.3-0.6-2.5-0.6-3.8c-0.1-2.2-1.4-3.8-2.9-5.2				c-0.7-0.7-1.7-0.4-2.5,0.2c-1.1,0.7-1.6,1.7-2.1,2.9c-0.8,1.8-0.9,3.8-1.1,5.8c-0.2,1.3-0.4,2.5-1.3,3.6				c-0.5,0.6-0.8,0.4-1.1-0.1c-0.6-1.1-0.9-2.2-1.3-3.4c-0.8-2.7-2.1-5.1-4.1-7c-1.7-1.5-3.4-2.5-5.9-2c-10.8,2.4-21.7,4.2-32.5,6.7				c-2.3,0.5-4.6,1.1-6.9,1.6c-3.6,0.9-8.9,5.4-8.9,10.9c-0.1,6.5,0.6,13.1,0,19.6c-0.1,1.4-0.5,2.8-0.9,4.4				c-0.9-1.8-0.9-3.6-1.1-5.4c-0.4-3.2-0.7-6.4-1.5-9.6c-0.4-1.5-1.2-2.8-2.8-3c-1.6-0.3-2.9,0.6-3.8,2c-0.3,0.4-0.5,0.8-1.1,0.7				c-0.5-0.1-0.8-0.4-0.9-0.9c-0.2-0.6-0.3-1.3-0.4-1.9c-0.1-1.3-0.2-2.7-0.4-4.1c-0.2-2.8-1.9-4.3-4.7-4.3c-2.8,0.1-5.4,0.9-8,1.8				c-4.1,1.4-8.1,2.8-12.2,4.2c-5,1.7-7.8,5.4-9.5,10.2c-0.6,1.6-1,3.3-1.5,4.9c-0.1,0.4-0.2,1.1-0.7,1.1s-0.6-0.7-0.6-1.1				c-0.2-1.1-0.3-2.1-0.4-3.2c-0.1-1.2-0.8-2.3-1.2-3.4c-0.3-0.7-1.1-1-1.9-1.1c-1.4-0.1-2.7,0.2-4,0.7c-4.3,1.8-8.1,4.6-12.2,6.9				c-4.7,2.7-5.9,2.3-7.7,9.7c-0.5,2.1-1.3,3.9-2.8,5.5c-0.3,0.3-0.4,0.8-0.8,0.7c-0.5-0.1-0.7-0.6-0.8-1c-0.2-1.2-0.4-2.4-0.6-3.6				c-0.3-1.7-1.7-3-3.1-2.9c-1.4,0.1-2.7,0.3-4,1c-2.3,1.3-4.7,2.6-7,3.8c-3.9,2.2-7.9,4.3-11.8,6.5c-1.3,0.7-2.3,1.5-2.9,2.9				c-0.5,1.3-1.2,2.5-1.8,3.7c-0.5,1.1-1.2,2.1-2.3,2.3c-3.8,0.6-5,3.5-6,6.5c-0.8,2.2-1.1,4.6-1,7c0,2.7,0.3,5.4-0.2,8.1				c-0.1,0.5,0,1.1-0.6,1.1s-0.5-0.7-0.5-1.1c-0.1-3.7-0.3-7.5-0.4-11.2c0-1.6-0.4-3.2-0.8-4.8c-0.5-2.1-2.5-3.3-4.4-2.7				c-5.2,1.4-9.9,3.9-14.6,6.5c-1.1,0.6-2.1,1.2-3.2,1.8c-0.6,0.3-1.2,0.5-1.8,0.5c-1.2,0-1.8-0.1-1.5-1.6c0.6-3.6,1.9-7.1,3.4-10.4				c5.5-11.8,12.6-22.8,20.3-33.3c10-13.5,20.5-26.4,31.6-39c12.2-13.8,25-26.9,38.5-39.4c5.2-4.8,10.7-9.3,16.7-13.1				c1.3-0.8,2.8-0.4,4.1-0.3c8.1,0.8,16.1,2,23.9,4.4c21,6.5,41.1,15.1,59.8,26.8c7.4,4.7,14.3,10.1,20.6,16.3				c1.9,1.8,3.8,3.7,6,5.3c0.4,0.3,0.6,0.6,0.6,1C228,90.8,227.8,96,227.6,101.2z"/>			<path class="st11" d="M179,62.5c-1.9-1.4-3.9-2.5-6.2-3.1c-2.3-0.6-4.4-1.5-6.5-2.4c-5.8-2.5-11.7-3.8-17.9-1.8				c-2.1,0.7-3.6,2.2-4.1,4.4c-0.4,2,0.9,3.3,2.4,4.5c0.4,0.3,0.7,0.5,1.1,0.7c0.6,0.4,1.3,0.8,1.9,1.2c0.6,0.4,0.6,0.8,0.2,1.3				c-0.6,0.8-1.4,1.1-2.2,1.6c-2.9,1.8-2.9,3.7,0,5.5c1.4,0.8,2.9,1.4,4.4,1.8c3.9,1.1,7.9,0.5,11.7,1c2.2-0.1,4.1-0.3,6.1-0.7				c2.2-0.3,4.3-1.4,6.5-1.8c2.4-0.5,4.6-1.5,5.1-4C182,67.6,181.8,64.5,179,62.5z M178.8,70c-0.1,0.3-0.3,0.7-0.6,0.8				c-1.9,1-3.8,2.2-6.1,2.4c-1.6,0.1-3.2,0.6-4.8,1c-1,0.3-1.9,0.5-2.9,0.4c-3.1-0.4-6.1-0.1-9.2-0.3c-2.5-0.2-4.8-1.1-7.1-2.1				c-0.9-0.4-0.7-0.8-0.1-1.3c1.1-0.8,2.4-1.3,3.3-2.5c1.5-1.9,1.3-3.7-0.9-5c-1.1-0.6-2.1-1.2-2.8-2.2c-1.2-1.6-0.8-3.2,1-4				c2.4-1.1,4.7-1.4,7.4-0.9c4.1,0.6,7.8,2,11.6,3.6c3,1.3,5.9,2.7,8.9,3.9C178.5,64.8,179.7,67.8,178.8,70z"/>			<path class="st11" d="M73.8,114.3c-1.4-0.6-2.9-0.4-4.3-0.9c-2.8-0.8-5.5-1.2-8.1-1c-6.5-0.3-9.3,1.2-13.6,3.4				c-0.9,0.4-1.7,1.1-2.3,1.9c-0.9,1.1-0.7,2.5,0.5,3.2c1,0.6,2,1,3.1,1.2c1.8,0.4,3.6-0.3,5.3,0.2c2,0.6,4,0.5,6.1,0.5				c0.7,0,1.5,0.1,2.2,0.2c3.7,0.3,7.3,0.1,10.9-0.9c1.8-0.5,2.8-1.9,2.8-3.8C76.5,116.2,75.7,115.1,73.8,114.3z M73.5,117.9				c-0.2,0.6,0.3,1.5-0.9,1.8c-3.4,0.7-6.8,0.7-10.2,0.7c-4.7-0.1-9.5-0.3-14.2-0.6c-0.5,0-1-0.1-1.2-0.6c-0.2-0.4,0.4-0.7,0.7-0.9				c3.3-2,6.9-3.3,10.8-3.5c0.9,0,1.8,0,2.6,0c3-0.2,5.8,0.3,8.6,1.1c1,0.3,2.1,0.3,3,0.7C73.5,116.9,73.7,117.3,73.5,117.9z"/>		</g>	</g></g><g id = "Tuna">	<path class="st20" d="M68,111.5c-1,0-2.2-1.2-3-0.5c-0.7,0.6-1.3,1.2-1.9,1.8c-1.3,1.2-2.6,2.5-3.9,3.8c-2.5,2.5-4.9,5-7.3,7.7		c-0.6,0.6-1.1,1.3-1.7,1.9c-0.8,0.7-1.6,1.5-2.4,2.2c-0.5,0.4-0.7,0.9-0.7,1.4c-2.6,3-5.3,5.8-8.4,8.4c-3.8-1.4-7.7-2.7-11.5-4.1		c-2.7-1-3.9,3.4-1.2,4.3c2.3,0.8,4.6,1.7,7,2.5c1.1,0.4,2.2,0.8,3.2,1.2c1,0.4,1.7,0.5,2.9,0.2c1-0.3,1.9-1.3,2.7-2		c0.9-0.8,1.8-1.6,2.7-2.4c1.5-1.5,3-3,4.4-4.6c1.4-1.6,3.4-3.2,4.8-4.8c5.3-4.8,11.2-9.7,16.2-14.8C71.3,112.4,70,111.6,68,111.5z"		/>	<polygon class="st21" points="25,131.3 51.3,103.7 67.7,106.2 68.6,110.5 39.2,139.2 25.2,134.4 	"/>	<g>		<path class="st22" d="M37.1,127c-0.8,0.7-0.3,1.1,0.2,1.4c0.5,0.4,1.8-0.1,1.7-0.9C38.9,126.7,37.1,127,37.1,127z"/>		<path class="st22" d="M45.8,115.7c-1.1,1.1-1.1,1.4-1.8,2.9c0,0,1.7-0.2,2-1c0.3-0.8,1.1-1.2,1.7-1.9			C48.3,115,46.9,114.6,45.8,115.7z"/>		<path class="st22" d="M51.9,103.5c-0.3,0.1-0.7-0.8-3.4,2.3c-2.7,3-15.4,16.6-15.4,16.6s-6.1,5.7-6.3,6.8s2.9,2.3,2.9,2.3			c1.7-2.4,2.4-2.9,3.3-3.8c0.9-0.9,3.3-2.6,4.2-4.1c1-1.4,1.8-2.3,2.6-3.7s1-1.4,3-3.3c2-2,2-1.7,4.3-3.8s2.5-2.8,3.6-4.5			c1.1-1.7,2.1-1.6,3.4-3.3C55.7,103.3,52.3,103.4,51.9,103.5z"/>	</g>	<g>		<g>			<path class="st23" d="M25.2,132.3c0.1-0.4,0.1-0.7,0.2-0.9c0.3-0.7,0.6-1.2-0.4-1.7c-0.7-0.4-0.4-1.1,0.2-1.4				c1.1-0.7,2.2-1.8,3.4-1.8c3,0,5.1-2.1,7.7-2.8c2.5-0.6,4.9-1.6,7.5-1.9c1.8-0.2,3.7-0.1,5.6-0.1c0.2,0,0.5,0.1,0.4,0.3				c-0.6,1.3,0.5,2.3,0.7,3.4c0.1,0.8,0,1.6-0.1,2.3c-0.1,0.4-0.3,0.8-0.8,0.8c-0.4,0.1-0.7-0.3-0.9-0.6c-0.7-1-0.8-2.1-1.1-3.2				c-0.4-1.2-0.7-1.3-2-1.1c-2.5,0.3-4.7,1.1-6.9,2.3c-1.6,0.8-3.4,0.4-5.1,0.9c-2.2,0.7-4,2.2-6.1,3.1c-0.4,0.2-0.3,0.5-0.2,0.9				c0.1,0.7,0.2,1.5,0.3,2.2c0.1,0.6,0,1.2-0.7,1.4c-0.6,0.1-1-0.3-1.2-0.8C25.4,133.2,25.3,132.7,25.2,132.3z"/>			<path class="st23" d="M62.2,113.8c0,0.8,0.1,1.7-0.5,2.4c-0.3,0.4-0.6,1.1-1.2,0.8c-0.5-0.2-0.9-0.8-0.9-1.4c0-0.4,0-0.8,0-1.2				c0.1-0.9-0.4-1.5-1.3-1.5c-2.9,0.1-5.8-0.1-8.5,0.6c-2.9,0.7-5.7,2-8.5,3c-1.2,0.4-2.4,1-3.6,1.5c-0.5,0.2-1.1,0.3-1.4-0.3				s0.2-0.9,0.7-1.2c2.9-1.6,5.9-2.9,9.1-3.8c2.4-0.7,4.8-1.4,7.3-1.6c1.5-0.1,2.9-0.9,4.6-1.1C60.9,109.6,62.3,110.6,62.2,113.8z"				/>			<path class="st23" d="M47.9,107.2c0.4,0.6,1,0.3,1.5,0.2c2.8-0.7,5.5-1.8,8.4-2.2c2.6-0.3,5.2-0.2,7.8-0.3c1,0,1.8,0.3,1.5,1.6				c-0.1,0.4,0.2,0.6,0.4,0.9c1.1,1.2,1.1,2.7,1.1,4.2c0,0.6-0.1,0.9-1.1,0.5c-1.6-0.6-1.7-1.7-1.6-3c0-0.9-0.6-1.2-1.3-1.4				c-2.7-0.7-5.3-0.7-8-0.2c-4.2,0.8-8.3,2-12.4,3.5c-0.4,0.2-1,0.6-1.3-0.1c-0.3-0.6,0.2-0.9,0.6-1.2c0.4-0.3,0.8-0.7,1.3-0.7				C46.2,108.8,47.5,106.5,47.9,107.2z"/>			<path class="st23" d="M55.5,117c-0.5,1.2,0.3,2.3,0.3,3.4c0,0.5,0.1,1,0.1,1.5c0,0.6-0.3,1.1-0.9,1.2c-0.7,0.1-1.1-0.4-1.3-0.9				c-0.3-0.7-0.5-1.4-0.5-2.2c-0.1-0.9-0.6-1.3-1.4-1.1c-2.9,0.8-5.9,0.5-8.8,1.1c-2.4,0.5-4.8,0.9-7.2,1.4c-0.2,0-0.5,0.1-0.7,0.1				c-0.4,0-0.9-0.1-1-0.6c-0.1-0.5,0.3-0.7,0.6-0.8c0.4-0.2,0.8-0.3,1.2-0.4c3.2-0.5,6.3-1.4,9.5-1.9c2.3-0.4,4.6-1,6.9-1.6				c0.9-0.2,1.8-0.3,2.7,0.2C55.3,116.5,55.5,116.6,55.5,117z"/>			<path class="st23" d="M38.8,128.3c0.8,0.1,1.6-0.2,2.5-0.2c2.9,0,4,1.7,3.3,4.7c-0.1,0.4-0.3,0.8-0.4,1.3c0,0.3-0.1,0.7-0.5,0.8				c-0.4,0-0.5-0.4-0.6-0.7c-0.3-0.8-0.6-1.5-0.8-2.3c-0.2-0.9-0.6-1.3-1.5-1.5c-2.6-0.7-4.6,0.8-6.8,1.5c-0.5,0.2-0.6,0.7-0.5,1.3				c0.2,1,0.4,2,0.6,3.1c0.1,0.4,0.1,1-0.5,1.1c-0.6,0.2-1-0.2-1.2-0.7c-0.5-1.1-0.8-2.3-0.5-3.5c0-0.2,0.3-0.4-0.1-0.6				c-0.8-0.4-0.8-0.5,0-0.9c1.4-0.8,2.2-2.3,3.8-2.8C36.6,128.5,37.6,128.1,38.8,128.3z"/>		</g>	</g>	<path class="st24" d="M38.8,138.3l-1-3.9c0,0,20-19.8,23.3-22.5c3.3-2.7,6.6-4.6,6.6-4.6l0.5,3.6L38.8,138.3z"/>	<g>		<g>			<path class="st25" d="M25,136.1c-0.3-0.1-0.6-0.3-0.7-0.6c-1.6-4.3-2-3.5,0.8-7c2.7-3.4,5.6-6.7,8.5-9.9				c3.7-4,12.8-12.7,13.5-13.5c1.8-2.1,4.5-2.7,7-2.6c3.1,0.1,6.1,0.6,9.2,1.1c1.1,0.2,2.3,0.5,3.4,0.6c1.7,0.2,2.6,1.2,2.8,2.8				c0,0.3,0.1,2.1,0.1,3.8c0,1.7-2.7,3.7-4.5,5.2c-5.7,4.7-10.9,10-15.9,15.4c-3.1,3.4-6.6,6.4-9.9,9.6c-0.3,0.3-0.9,0.4-1.3,0.2				C37.3,140.5,28.5,137.3,25,136.1z M65.7,107.2c-0.7-0.2-1.1-0.3-1.6-0.3c-3.7-0.6-7.5-1.4-11.4-1.7c-0.8-0.1-1.4,0-2,0.5				c-1.7,1.4-3.2,2.9-4.7,4.4c-5,5-9.3,10.6-14.4,15.5c-1.1,1.1-2.2,2.3-3.3,3.4c-0.6,0.6-0.5,0.9,0.3,1.3c2.6,1.1,5.3,1.3,7.9,2.3				c1,0.4,1.7,0.2,2.5-0.5c2.9-2.9,5.6-5.9,8.6-8.7c3.7-3.5,7.4-7,11.2-10.4C60.9,111,63.1,109.2,65.7,107.2z M37.9,137.4				c0.8,0,1.3-0.2,1.7-0.6c3.5-3.5,7.1-6.9,10.4-10.6c4.4-4.9,9.1-9.5,14.4-13.4c0.8-0.6,1.6-1.2,2.3-1.9c0.7-0.6,0.4-1.4,0.1-1.9				s-0.8,0.1-1.1,0.3c-1.2,0.7-2.3,1.3-3.4,2.1c-4.5,3.8-8.6,7.9-12.8,11.9c-3.7,3.5-7.1,7.2-10.5,11c-0.4,0.5-1,0.9-1.6,0.6				c-3.2-1.2-6.6-1.6-9.8-2.9c-0.4-0.2-0.9-0.7-1.2-0.2c-0.3,0.4,0,1,0.3,1.5c0.1,0.2,0.3,0.3,0.5,0.3c1.1,0.5,2.1,1,3.2,1.4				C32.9,135.9,35.5,136.7,37.9,137.4z"/>		</g>	</g></g><g id="Beef">	<path class="st8" d="M126.5,47.4c-0.9,1.3-2.7,2.3-4,3.4c-1.5,1.2-2.9,2.4-4.4,3.5c-1.4,1.1-2.8,2.3-4.2,3.4		c-1.4,1.1-2.8,2.6-4.5,3.2c-3,0.9-6.8-0.6-9.7-1.5c-3.4-1.1-6.7-2.5-9.8-4.2c-1.4-0.8-2.7,1.4-1.3,2.2c3.5,1.9,7.1,3.4,10.9,4.6		c3.2,1,7.2,2.4,10.6,1.4c1.7-0.5,3.1-1.8,4.5-2.9l5-4c1.7-1.3,3.3-2.7,5-4c1.4-1.1,3.1-2.2,4.2-3.7		C129.6,47.4,127.4,46.1,126.5,47.4z"/>	<polygon class="st33" points="88.6,54.5 87.2,39.7 104.7,26.9 124.5,32.2 126.4,46.8 109.3,61.1 	"/>	<path class="st34" d="M88,40.4l11.8,4.1c0,0,4.1,1.9,6.1,1.4s6.3-2.9,6.4-3.3c0.2-0.4,11.6-10.4,11.6-10.4l-20.2-5.4L88,40.4z"/>	<path class="st35" d="M121.9,32.9c-1.8,3.3-5.1,5-7.9,7.3c-1.2,1-2.6,1.8-3.1,3.4c-0.2,0.5-0.6,0.5-1,0.5c-1,0.1-1.9,0.4-2.8,0.9		c-1.7,0.9-3.7,0.9-5.4,0.3c-1.3-0.4-2.7-0.5-4-0.9c-1.3-0.4-2.5-0.6-3.2-2c-0.3-0.6-0.9-1.2-1.8-0.3c-0.5,0.6-2.3,0.1-3.1-0.8		c-0.7-0.8-0.8-1.4-0.2-2.4c1.3-2.1,3.3-3.2,5.3-4.4c1.5-0.9,3.1-1.6,3.7-3.5c0.1-0.4,0.6-0.8,1-1c2.3-1.1,4.5-2.6,7.1-2.8		c1.4-0.1,2.9,0.3,4.3,0.6c0.2,0.1,0.5,0.3,0.5,0.6c0,1.2,0.8,0.9,1.5,1c2.1,0.5,4.4,0.3,6.2,1.9c0.2,0.2,0.5,0.3,0.8,0.2		c0.9-0.6,1.5-0.1,2.1,0.6C121.9,32.4,121.9,32.6,121.9,32.9z M111.8,34.9c1.3-0.9,2.7-1.1,3.8-2c-1.6-1.2-3.2-1.6-5-0.5		c-0.5,0.3-1.4,0.1-1.4,0.8c0,1-0.6,1.2-1.4,1.4c-0.5,0.1-1.1,0.4-1.5,0.8c-1.4,1.4-2.9,1.2-4.7,0.5c0.5-0.4,0.9-0.5,1.4-0.5		c0.9-0.2,1.8-0.4,2.5-1c0.4-0.4,1.5-0.5,1.2-1.2c-0.3-0.6-1.4-0.5-2-0.2c-2.4,1-5.2,0.7-7.2,2.7c-0.7,0.6-1.7,0.8-2.6,1.2		c-0.6,0.3-1,0.6-0.2,1.2c1.4,1.1,2.9,1.4,4.5,0.7c1.7-0.8,3.4-0.7,5.1,0.2c-2.1,0.6-3.8,2.2-6.1,2.4c1.3,0.4,2.4,1.4,3.9,1		c1.3-0.3,2.6-0.4,3.9-0.1c1,0.2,2.3,0.4,2.6-1.2c0-0.2,0.3-0.3,0.5-0.3c1.4-0.1,2.3-1.2,3.5-1.8c1.4-0.7,2.6-1.7,3.8-2.7		c0.3-0.2,0.7-0.5,0.6-0.9c-0.2-0.4-0.7-0.4-1.1-0.4c-0.3,0-0.6,0.1-0.9,0.1C114,35.4,113,35.4,111.8,34.9z M100.3,32.9		c2.3-0.2,4.2-1,6.2-1.4c0.4-0.1,0.7-0.4,1.1-0.6c0.4-0.2,0.4-0.5,0-0.7c-0.4-0.2-0.8-0.6-1.4-0.5C103.9,29.9,102,30.9,100.3,32.9z"		/>	<path class="st36" d="M115.4,56.9c-0.3,1.1-3.5,3.6-4.8,3.2c0.4,0.7-2.8,0.9-3.2,0.3c-0.5-0.7-0.6-1.2-0.4-2		c0.1-0.7-0.5-1.3-1.2-1.8c-1.2-0.8-2.3-1.6-3.5-2.4c-0.9-0.6-1.3-1.4-1.4-2.5c0-1.9-0.1-3.7-2-4.9c-0.7-0.4,0.1-1.4,0.2-2		c0-0.4,1-0.2,1.4,0.1c1.8,1.6,4,1.2,6.1,1c1.5-0.2,2.3-1.1,3.2-2.1c0.7-0.7,1.4-1.4,2.3-1.7c1-0.3,1.8-0.9,2.2-1.6		c1.4-2.2,3.3-3.6,5.8-4c1.1-0.2,1.5-0.9,1.9-1.7c0.7,0,1.4-0.9,2.1-0.9c0.8,0.6,1.8,1.9,0.7,3.1c-0.1,0.1,0.1,0.4,0.2,0.5		c0.3,0.5,0.5,1.1,0.5,1.8c0.1,0.9,0.3,1.8,0.9,2.5c0,0.2,0,0.5,0,0.7c-1.6,1.7-0.4,3.5,0,5.2C126.5,48.1,115.7,55.8,115.4,56.9z		 M106.8,52c0.2-1.2,0-2.2-1.5-2.4c-0.5-0.1-0.9-0.3-1.2-0.8c-0.2-0.3-0.6-0.4-1-0.2s-0.5,0.6-0.4,0.9c0.3,0.9,0.6,1.9,1.1,2.7		c0.3,0.6,1,1,1.5,1.5c0.6,0.5,1.5,0.1,1.5-0.7C106.9,52.7,106.8,52.3,106.8,52z"/>	<path class="st37" d="M86,43.1c1.5-1.9,3.5-1.9,5.5-1.2c1,0.3,1.9,0.8,3,0.5c0.7-0.2,1.3,0.1,1.9,0.5c0.3,0.2,0.7,0.5,0.5,0.9		c-0.2,0.4-0.6-0.2-0.9,0.1c0.1,0.3,0.4,0.7,0.2,1c-0.6,1.3,0.2,2.2,1,3c0.5,0.5,0.8,1.1,0.8,1.7c0.1,1.5,0.9,2.8,0.8,4.3		c-0.1,1,1,1.4,1.5,2.2c0.3,0.5,0.9,0.9,1.2,1.4c0.8,1,0.4,1.3-0.7,1.8c-1.1,0.6-1.9-0.3-2.9-0.1c-0.2,0-0.5-0.1-0.5-0.3		c-0.2-1.2-1.2-2.1-1.6-3.2c-0.5-1.3-0.3-2.5,0.3-3.7c0.8-1.6-0.2-3.7-1.9-4.2c-0.8-0.2-1.5-0.5-2.2-0.9c-1-0.6-1.8-0.9-2.7,0.2		c-0.4,0.5-1.3,0.5-1.4-0.2c-0.2-1.4-1.4-2.1-2-3.2C86,43.6,86,43.4,86,43.1z M89.8,41.9c-0.8,0.2-1.6,0.4-1.6,1.4		c0,0.8,0.7,1.3,1.4,1.2c0.8-0.2,1.9-0.4,2-1.4C91.6,42.2,90.5,42.1,89.8,41.9z"/>	<path class="st37" d="M94.8,56.7c0,1,0.8,0.9,0.2,0.9c-0.9,0.1-4-0.6-4-1c-0.1-1.2-0.8-2.2-1.6-3c-0.6-0.6-0.7-1.3-0.8-2		c0-0.4,0.3-0.9,0.6-0.8c1.1,0.3,1.4-0.6,1.8-1.2c0.4-0.4,0.8-1,1.3-0.4c0.4,0.5,1.9,0.8,0.8,2c-0.4,0.5-0.5,0.9,0.1,1.4		C94.6,53.7,94.5,55.5,94.8,56.7z"/>	<g>		<path class="st38" d="M109.3,48.1c1.7,1.8,3.9,2.1,6.3,2c2.6-0.1,3.1,2,3.6,4c-0.4,0.3-0.8,0.5-1,1c-0.5,0.9-1.2,1.3-2.2,1.2			c0.6-1.9-1-3.9-3.3-3.7c-0.9,0.1-1.8-0.1-2.7-0.1C109.8,51.1,109.5,49.6,109.3,48.1z"/>		<path class="st38" d="M126.8,44.6c-0.9-1.5-2.5-1.6-4-1.7c-1.9-0.2-3.5-2.3-3.2-4.2c0.1-0.3,0-0.7,0.1-1c0-0.1,0.1-0.1,0.2-0.1			c0.5,0,0.8,0.4,1.1,0.7c0.5,0.5,1,0.8,1.7,0.8c0.2,0,0.6,0,0.7,0.2c0.9,1.2,2,0.9,3.1,0.3C126.6,41.3,126.7,42.9,126.8,44.6z"/>		<path class="st38" d="M119.6,48.8c-1.4-0.7-3.2-0.7-4.8-1.3c-0.9-0.3-1.8,0.4-2.7-0.4c-0.9-0.9-1.1-0.9-0.1-1.8			c0.9-0.8,1.3-2.1,2.5-2.8c1-0.6,1.6-0.9,2.5,0.4c1.2,1.7,3.3,2.1,5.3,2.1c1,0,1.1,0.3,0.8,1.1C122.6,47.8,121.3,48.8,119.6,48.8z"			/>	</g>	<path class="st39" d="M85.3,40.8L85.3,40.8c0.6-2.3,2.6-3.4,4.3-4.7c4.2-3.3,8.7-6,12.6-9.6c0.7-0.7,1.5-1,2.4-1l0,0		c0.9,0.2,1.8,0.3,2.7,0.5c5,1.1,9.7,3.2,14.9,3.5c3,0.2,3.7,1.1,4.2,4c0.4,2.9,0.6,5.8,1,8.7c0.1,0.9,0.4,2.9,0.6,4		c0.1,0.5-0.1,1-0.4,1.5c-0.5,0.6-1,1.3-1.6,1.9c-3.1,3.3-6.9,5.6-10.5,8.2c-1.9,1.4-3.5,3.3-5.8,4.2c-0.7,0.3-1.4,0.3-2.1,0.2		c-0.8-0.1-1.7-0.3-1.9-0.3c-1.6-0.3-3.2-0.5-4.7-1c-3.6-1.1-7.1-2.4-10.7-3.7c-0.9-0.3-1.6-0.8-2.4-1.4c-0.6-0.5-0.8-1-0.9-1.7		C86.7,50.6,85.2,41.4,85.3,40.8z M106.6,58.9c1.9,0.2,3.5-0.5,5-1.6c4.5-3.4,8.7-7.1,13-10.7c0.5-0.5,0.6-1,0.5-1.8		c-0.5-3-0.8-6-1.5-9c-0.3-1.5-0.2-1.6-1.5-0.6c-1.3,1-2.3,2.3-3.8,3.3c-2.5,1.6-4.9,3.3-7,5.4c-2.3,2.2-5,2.8-8,2.2		c-3.3-0.6-6.6-1.5-9.7-2.8c-1-0.4-2.3-0.8-3.5-1.2c-0.9-0.3-1.4-0.3-1.3,0.9c0.1,2.6,0.3,5.2,0.5,7.7c0.2,2.3,1.3,3.8,3.6,4.5		c2,0.7,4,1.4,6,2C101.4,58.2,104,58.7,106.6,58.9z M104.9,44.9c2.2,0,3.8-0.5,5.1-1.8c2-1.9,4.2-3.6,6.5-5.1		c1.7-1.1,3.2-2.6,4.5-4.1c0.5-0.6,0.3-0.9-0.3-1c-0.9-0.3-1.9-0.4-2.8-0.7c-3.9-1.5-7.9-2.4-11.9-3.4c-1.4-0.4-2.5,0.1-3.6,0.9		c-2.7,2-5.4,4.1-8.1,6.1c-1.6,1.2-3.2,2.3-4.7,3.5c-0.3,0.2-0.8,0.5-0.6,1c0.2,0.2,0.6,0.1,0.9,0.2c2.3,0.4,4.4,1.4,6.5,2.2		C99.3,43.8,102.3,44.6,104.9,44.9L104.9,44.9z"/></g></svg>