<svg xmlns="http://www.w3.org/2000/svg" width="268.5" height="184.3"><defs><g id="Slice_Three">  <path d="M267.3 89.6c.1 2.2-.4 4.2-1.2 6.2-2 4.6-4.3 8.9-7.3 12.9-1.1 1.5-2.4 2.7-4.3 3.2-2.8.8-5.4 2.1-8.3 2.6-1.5.3-2.9 0-4.2-.6-3.4-1.7-6.8-3.6-10.1-5.6-.7-.4-1.4-.6-2.2-.3-27.1 6-54.3 11.9-81.1 19.5-7.9 2.3-15.4 5.7-23.2 8.5l-39.8 14.5c-5.9 2.2-11.4 5.1-17.1 7.9-6.1 2.9-12.1 6-17.9 9.4-6.4 3.7-13.3 6.4-20.2 9.3a30.9 30.9 0 0 0-3.2 1.4c-4.2 2.1-8.6 3.4-13.4 3.7-4.7.3-3.7.6-6.4-2.9-1.7-2.1-3.4-4.3-4.8-6.7-.5-.7-.8-1.4-.3-2.3.4-.9.2-1.8-.6-2.4-.7-.5-.6-1-.4-1.6 2.7-7.3 6.2-14.2 10.1-20.9 5.9-10.1 12.2-19.9 19.1-29.3 4.1-5.6 8.8-10.9 13.2-16.3l18.9-23.1c.5-.7 1.2-1.3 1.8-1.9l23.9-24c5.8-5.9 12.3-11 18.5-16.4 1.4-1.2 2.8-2.5 4.3-3.6.5-.4.6-.8.4-1.4-2.8-10.3 2.9-20.3 11.9-24.9 2.5-1.3 5.2-2.2 8-2.7 1.9-.4 3.7.4 5.5.8 13.5 3 26.8 6.5 40.2 9.9 1.7.4 3.2 1.4 4.8 2.2l41.6 20.7c4.6 2.4 8.5 5.9 12.5 9.1 4.4 3.5 8.7 7.3 13.1 10.9 3 2.5 5 5.8 7.5 8.7l6.8 8.5c.5.6.9 1.3 1.1 2.1 1.3 4.6 2.7 9.6 2.8 14.9z" fill="#e3b119" />  <path d="M188.9 19.8c2.3.6 3.1 1.6 3.1 3.8 0 .8.4 1.1 1 1.3 1.2.4 2.5.6 3.5 1.6.3.3.6.5.5.9s-.6.3-.9.3c-7.2.4-11.7 5.4-12.8 11.2-.3 1.6-.1 3.2-.2 4.7-.1 1.8-.8 3.5-2.2 4.7-.2.2-.4.5-.8.3s-.1-.5-.1-.8c.3-2.5-.5-3.8-2.9-4.7-1.9-.7-3.9-1-5.8-1.3-1.3-.2-2.6-.4-3.7-1.2-1-.7-1.3.4-1.9.8-.4-.9-.5-1.9-.5-2.8 0-1.7-.4-3.2-.7-4.8-.6-2.8-.7-5.6.6-8.3.7-1.5 1.6-2.7 2.9-3.6 3.6-2.6 7.4-3.8 11.9-2.9.6.1 1.1-.1 1.6-.3 1.8-.5 3.6-1.4 5.5-1.4.6 0 1.1.1 1.6.5.7.5 1.4 1 .3 2zm2.4 28c.3-4.2.8-8.3 3.4-11.8 1.7-2.4 4-3.9 6.9-4.6 1.1-.3 2.1-.8 3.2 0 .4.3.9.5.8 1.1-.1.7-.6.8-1.2 1-3.5 1.2-6.7 2.6-8.3 6.3-.9 2.3-.8 4.7-.2 7 .5 1.8.3 3.1-1.3 4.1-.3.2-.4.5-.5.7-.6 1.2-1.5 1.2-2.3.1-.6-1.2-.5-2.6-.5-3.9z" class="u" />  <path d="M6.1 168c-3.5-.4-4.1-1.9-3.2-5.1.2-.5.4-.9.7-1.4.1-.3.3-.7.1-.8-1.3-.5-.4-1.2-.2-1.8 2.2-5.9 5-11.4 7.8-17.1.1-.2.2-.4.3-.5 1.4-.6 2-2 2.6-3.2 2.2-4.2 5.7-7.6 8-11.7 5.6-9.5 13.2-17.5 19.9-26.1A766.47 766.47 0 0 1 58.5 80c2.5-2.9 5-5.8 8-8.3 2.9-2.5 5.5-5.5 8.1-8.3 3-3.3 5.9-6.8 9-10C90.1 47 97.1 41 104.1 35c.4-.3.8-.7 1.1-1 .7-.6 1.3-1.2 2.2-.2.2.3.7.5 1 .2 2.4-1.4 4.9-.8 7.4-.6 3 .2 6 .5 9 1.2 8.2 1.9 16.4 4 24.2 7.2 5.9 2.4 12 4.5 17.9 6.8 9.1 3.7 17.9 8 26.4 13 5.4 3.2 11 6.3 16 10.1 5.1 3.9 9.6 8.4 13.8 13.2 1.7 2 1.1 3.8-1.9 4.8-2 .6-4.3.7-6.4 1-3 .4-6 .9-9 1.4-11.4 1.9-22.4 5.3-33.6 8.1-10.7 2.7-21.3 5.7-31.8 8.8l-33.2 9.9c-6.1 1.9-12.3 3.8-18.2 6.1-9.5 3.8-19.2 7.2-28.3 12.2-6.8 3.7-13.8 7.1-20.7 10.6-10 5-19.5 11.1-28.4 17.8-1.5 1.4-3.4 2.2-5.5 2.4z" fill="##36964D" />  <g fill="#fae684">    <path d="M226.2 39.1c2.1 1 3.6 2.7 5.4 4.2 2.9 2.3 5.6 5 8.6 7.2 4.8 3.3 8.7 7.6 12.8 11.6.6.6 4.7 3.6 5.2 4.1 2.5 2.4 1.2 4.8 3.3 7.5.6.8 1.4 1.6.6 2.6-.9 1-1.9.4-2.8-.2-2.4-1.4-4.5-3.3-6.5-5.2-5.9-5.5-12.1-10.5-18.5-15.4-5.8-4.3-11.6-8.7-17.6-12.7-11.3-7.4-23.3-13.5-35.6-19-5.7-2.5-11.4-5-17.4-7-6.1-2-12.3-3.9-18.5-5.6-3.3-.9-6.5-2.1-9.9-2.6-5-.8-9.1.6-11.9 5-1.7 2.6-3.6 5.2-4.7 8.2-.2.5-.4 1.1-.2 1.7.5 1.4.1 2.7-1 3.3-1.2.7-2.8.3-3.7-.8-1.4-1.8-1.3-3.8-1-5.9.3-1.9.7-3.9 1.2-5.7.5-1.6 1.6-2.8 2.7-4.1 2.9-3.6 6.4-6.6 10.3-9.1.6-.4 1.1-.6 1.5.2.4.7 1.2 1.1 2 1.2 2 .2 4.1.8 5.7-1 .3-.3.6-.3.9-.1 2.8 1 5.8 1.4 8.8 1.9 1.8.3 3.5 1 5.2 1.8l4.4 2c-.2.4-.6 0-.9.3 4.3.7 8.2 2.5 12.1 4.1.9.4 1.6.5 2.6.3 1.2-.3 2.5-.1 3.7.6 3.3 1.7 6.6 3.3 10 4.9 13.2 6.1 26.6 11.9 38.6 20.3 1 .7 2.1 1.3 3.1 2 .8.6 1.2.3 1.3-.6h.2zm2.8 42.6c2 0 2.7.7 2.9 2.7l-2.9-2.7z" />    <path d="M257.4 66.5c-1-.7-.9-1.7-1.2-2.5.7.6 1.1 1.4 1.2 2.5zm-31.2-27.4s-.1-.1-.1-.2c0 .1.1.2.1.2h0z" />  </g>  <path d="M4.9 177.6c.7-1.3.5-.9 1.8-.3 1.9.9 3.6 2.5 6.1 1.8 2.6-.8 5.2-1.6 7.7-2.8 4.6-2.2 9.5-3.6 14.2-5.6 7.3-3.2 14.3-6.9 21.2-10.9 10.6-6.1 21.6-11.2 33-15.7 4.3-1.7 8.6-3.5 12.8-5.4 3-1.4 9.1-3.5 12.1-4.9 24.5-10.6 47-17 73-23.1l15.9-4 21.3-4.5c1.6-.3 3.4-.3 5.1-.6 1.4-.3 2.4-1.2 2.6-2.5.8-4.3.6-8.6.3-12.9-.1-1.1-.6-1.9-1.5-2.6-.6-.5-1.1-1.3-1.7-1.9-5.2-5.8-10.6-11.4-17.3-15.7-4.6-2.9-9.4-5.6-14.1-8.2-.8-.4-11.4-6.7-15.9-8.6-8-3.3-14.5-7.8-22.6-10.7-.8-.3-1.5-.5-2.3-.6s-1.4-.2-1.6-1.1c-.1-.5-.6-.5-1-.6-3.7-1.4-7.6-1.9-11.4-2.7-7.5-1.6-14.9-3.5-22.3-5.2-.7-.1-1.1-.1-1.6.5-1.3 1.6-3.2 1.3-4.9 1-1.4-.3-2.2-1.5-2.2-3 0-.5-.3-.9-.8-1.1-.8-.3-1.3-.9-1.3-1.8 0-1 .6-1.5 1.4-1.9 2.2-.9 4.4-1.3 6.7-1.5 6.2-.4 12.1 1.1 18 2.8l35.1 10.1c14.8 4.8 28.3 12 40.8 21.2 5.7 4.2 11.6 8.1 16.8 12.9.9.8 2.1 1.4 3.1 2.2.7.5 1.2.4 1.8-.2 2.8-3.1 5.9-5.6 9.9-6.9 4.2-1.3 8.3-1.3 12.1 1.2 1 .6 2 .6 2.9-.3.4-.5.6-.3 1-.1 2.3 1.5 3.1 3.9 2.3 6.6-.3.9-.3 1.8.7 2.5 2.6 2 3.6 4.9 4.1 8 .3 1.4.5 2.8.9 4.1.8 3 .5 5.9-.5 8.8-1.2 3.2-2.8 6.2-5 8.9l-4.6 5.9a19.33 19.33 0 0 1-3.5 3.5c-1.2.9-2.6 1.4-4.1 1.6-2.6.3-5.1.9-7.6 1.3-3.1.4-6-.7-8.8-2-1.3-.6-2.1-1.7-2.5-3-.4-1-1-1.7-2-1.8-1.1-.2-2.1.1-2.7 1.1-.4.7-.9.4-1.4.4-4.4.5-8.9.8-13.3 1.6-7.1 1.2-14.1 2.7-21.1 4.6-2.9.8-6.1 1.1-9.1 1.8-2.4.6-4.6 1.6-7 2.2-13.8 3.4-27.3 7.8-40.6 12.5-6.6 2.3-13.3 4.3-19.7 7.1-6.1 2.7-12 5.7-18 8.6-.9.4-2 .8-2.8 1.3-5.3 3.7-11.6 5.6-17.4 8.1-5.9 2.6-12.1 4.8-17.9 7.6-8.2 3.9-16.6 7.3-24.6 11.7-2.1 1.1-4.6 1.5-6.8 2.7-3.2 1.8-6.6 2.5-10.2 3-.6.1-1.3 0-1.7.5h-1c-1.7-1-3.6-1.3-5.5-1.7-1.4-.3-2.7-1.8-2.8-3.3z" fill="#c58412" />  <path d="M2.5 164.2c.3-.9.5-2 1.2-2.9.2-.2.2-.7-.1-.8-1-.4-.4-.9-.2-1.4 1.8-4.7 3.8-9.2 6.1-13.6.4-.9.8-1.8 1.2-2.6s.8-1.5 1.7-2.1c1.1-.7 1.5-2.1 2.1-3.2 1.9-3.5 4.5-6.6 6.8-9.8 1.1-1.5 2.2-3 2.8-4.8.5-1.4 1.8-2.5 2.7-3.7 4.4-5.7 8.9-11.3 13.4-16.8l11.4-14c2.3-2.8 4.4-5.8 6.8-8.4 2.6-2.8 5.1-5.8 8.1-8.3 1.9-1.7 3.8-3.5 5.4-5.5 1.8-2.1 3.7-4.1 5.5-6.1.9-1 2.2-1.8 2.8-2.8.9-1.6 2.4-2.6 3.4-4 1.6-2.2 19.8-17.3 19.8-17.7-.1-.4.4-.6.6-.8.3-.3.6-.4.9-.7.8-.8 1.5-1.7 2.7-.5.2.3.6.3.9.1 1.8-1 3.6-.8 5.6-.7 3.7.3 7.3.5 10.8 1.3 7.7 1.8 15.3 3.6 22.7 6.6 6.9 2.8 13.9 5.1 20.7 7.9 3.3 1.4 6.6 2.9 9.9 4.5 10 4.8 19.7 10.2 28.9 16.5 5.7 3.9 10.6 8.7 15.1 13.8.5.6 1.2 1 1.5 1.8.9 2.3.1 3.1-2.1 4.1-.9.4-2 .4-3 .6-4.1.5-8.3 1.1-12.4 1.9-15.1 2.8-29.9 7.2-44.7 11-9.5 2.5-18.9 5.3-28.3 8-13.7 3.9-27.3 8-40.7 12.7-6.9 2.4-13.7 5.2-20.4 8-7.9 3.2-15.3 7.6-22.9 11.4-7 3.4-14 7.1-20.7 11-5.3 3.1-10.2 6.6-15 10.2-1.6 1.2-3.2 2.4-5.1 3.1-2.3.4-4.6.9-6-1.8.1-.5.1-1 .1-1.5zm44.3-55.9c.2.1.3.2.3.2 9-.1 17.9.3 26.8-.2 3.7-.2 7.3-.2 11-.3h40.6c.8 0 1.5-.1 2.2-.3l12.5-4.4c11.7-4.1 23.6-7.5 35.4-10.8 9.3-2.6 18.4-5.5 27.8-7.6 1.2-.3 2.2-.6 3.2-1.5 2.1-1.9 2.1-1.8.1-3.9-4.6-4.8-9.9-8.7-15.4-12.2-.6-.3-1.1-.4-1.6-.4l-11.2.5c-2.9.2-5.9.3-8.8.4-5.3.4-10.7.6-16 .8-2.6.1-5.3.3-8 .3-1.6.1-3.3.1-5 .2l-15 1c-2.4.2-4.9.3-7.3.5l-14.2 1.2-9 .8c-4.5.4-9 1-13.5 1h-4.3c-.7 0-1.3.2-1.8.8-1.3 1.4-2.6 2.8-3.8 4.3l-8.4 9.4c-3.8 4.4-7.5 8.9-11.2 13.4-1.8 2.1-3.5 4.4-5.4 6.8zM79.6 71c-.2 0 0 0 0 0l11.6-1.2c4.3-.4 8.8-.7 13.1-1.3 5.6-.8 11.3-1.1 16.9-1.7 4.4-.4 8.8-.7 13.3-1l12.6-.8c3.3-.1 6.6-.3 9.9-.5 4.6-.2 9.2-.5 13.8-.8 4.4-.3 8.7-.3 13.1-.5.3 0 .8.1.9-.3.2-.5-.4-.6-.6-.7l-9.3-5.6c-.6-.4-1.4-.7-2.1-.7l-10.4.3-14.6 1-6.8.5-11 1c-2.2.2-4.3.3-6.4.6l-8.4.9-8.5.8c-2.9.3-5.8.7-8.8.9s-5.9.6-8.9.5c-.6 0-1.1.2-1.6.6-1.3 1.2-2.7 2.4-3.9 3.7-1.5 1.5-2.7 2.9-3.9 4.3zm1.6 53.3c-1.8-.2-3.6-.3-5.3-.3-8.5-.1-17-.1-25.6.4l-13.5.8c-1.2.1-2.5-.1-3.4 1.3-3.1 4.9-6.6 9.4-10.1 14-4 5.2-7.7 10.7-11.2 16.3-.3.5-1 1.2-.1 1.9.8.6 1.2-.1 1.7-.5 2.1-1.4 4.2-3 6.4-4.4 6.1-3.8 12.4-7.3 18.7-10.7 6.8-3.7 13.7-7.4 20.7-10.6 2.3-1.1 4.8-2.2 7.3-3 4.8-1.5 9.6-3.4 14.4-5.2z" class="u" />  <path d="M268.5 90.6c-.5 5.1-1.8 9.8-4.6 14.1-5.1 7.6-12.3 11.8-21.5 11.6-5.1-.1-9.6-1.9-12.8-6.2-.4-.6-.9-.4-1.4-.3-10.5 1.8-20.9 4-31.3 6.7-26.3 6.8-52.4 13.9-77.9 23.2-20.1 7.3-39.6 16-58.9 25.2l-32.5 15.2c-4.2 1.9-8.6 3.7-13.3 4.2-.1 0-.2.1-.3.2h-2.5c-.1-.3-.4-.2-.6-.3-1.7-.4-3.3-.9-4.7-2.3C3 178.6.6 175 0 170.3c0-.3.1-3.4.1-3.7.4-5.1 2.6-9.6 4.7-14.1 8.2-17.1 19.4-32.1 31.1-46.8C42.1 98 48.3 90.4 54.8 83c7.7-8.8 15.8-17.3 24-25.6 8.6-8.7 17.3-17.1 26.7-24.8 1-.9 2.1-1.7 3.1-2.5.4-.3.7-.6.5-1.1-1.3-4.5-.4-8.9 1.5-13 3.2-7 8.2-12.4 15.5-15.3 2.2-.9 4.3-.8 6.5-.7 14.6.6 28.1 5.5 41.6 10.5 15 5.5 29.6 12.1 43.5 20 12.3 7 23.9 15 34.1 24.9 2.8 2.7 5.6 5.4 7.9 8.5 4.7 6.3 7.9 13.4 8.7 21.3.1 1.9.1 3.6.1 5.4zm-11.9-22.8h.3c0-.1-.1-.2-.1-.2 0-.5-.3-.8-.6-1.2-.9-1.3-2.1-2.3-3.2-3.5-5.3-5.7-11-10.9-17.3-15.5-11.4-8.4-23.6-15.4-36.3-21.6-11.5-5.6-23.4-10.2-35.4-14.5-9.4-3.4-19-6.3-28.9-7.5-4.7-.6-9-.1-12.8 2.9-1.7 1.3-3.3 2.7-4.7 4.4-3.7 4.6-6 9.6-5.7 15.7.1 1 .4 1.4 1.4 1.2.9-.1 1.8-.2 2.8-.1 6 .3 11.9 1 17.8 2.4 15.5 3.7 30.2 9.5 44.6 16.2 10.3 4.8 20.3 10 29.5 16.7 7.9 5.7 15.4 11.8 22.3 18.8 1.7 1.7 2.9 3.4 2.3 5.9-.1.5 0 1 0 1.5 0 2.1-.1 4.3-.2 6.4-.3 3.2-1 6.4-1 9.7 0 .3-.1.8.2 1.1 2.1 2.2 4.2 4.3 7.4 5.1 7 1.7 13.1-.2 18.2-5 6.6-6.3 8.3-14.3 7.1-23.2-.6-4.3-2.2-7.9-5.7-10.6-3.5-2.6-7.4-3.3-11.6-2.5-2.2.4-3.9 1.8-5.5 3.3-1.7 1.6-3.6 2.8-5.1 4.6-.3.3-.8.8-1.3.4-.4-.4.1-.8.4-1.2 1.8-2.5 3.6-5.1 5.9-7.2 2.9-2.7 6.3-4 10.3-3.7a24.9 24.9 0 0 1 4.9 1.2zM13.1 181.4c2.9-.3 6.3-1.3 9.5-2.7 15.4-6.6 30.6-13.7 45.7-21 22.1-10.7 44.8-19.9 68-27.6 21.4-7.1 43.2-13 65-18.7 8.4-2.2 16.9-3.9 25.5-5.6.6-.1 1.1-.1 1.1-1 .4-6.2 1.4-12.3 1.5-18.4 0-.9-.2-1.5-.9-2.1-2.4-1.8-4.6-3.8-6.8-5.9-4.1-3.9-8.4-7.6-12.9-11C198.9 60 188.1 54.2 177 49c-12.3-5.8-25-10.7-38.1-14.5-7.1-2.1-14.4-3.1-21.8-3.8-1.3-.1-2.8-.5-4 .3-4.3 2.8-8.5 6-12.4 9.4-10.2 8.8-19.5 18.4-28.8 28.1-11.9 12.3-23 25.3-33.7 38.8-8.6 10.7-17 21.6-24.2 33.3-4.1 6.7-7.8 13.6-10.4 21-1 2.9-1.8 5.8-1.2 8.9.6 2.6 1.8 5 3.5 7.1 1.7 2.2 3.7 3.8 7.2 3.8z" fill="#aa600a" /></g><g id = "Cheese_Three">   <path d="M211.5 68.2c-1.7-1.6-3.6-2.8-5.6-4l-29.1-16.5c-3-1.7-6.4-2.6-9.6-3.8-10.8-3.9-21.6-8-32.6-11.5-3.9-1.2-7.9-1.4-11.9-1.9-2.3-.3-4.7-.2-7-.8h-2.8c0 .2-.1.4-.2.4-4.8 2.3-8.4 6.2-12.3 9.7C84.7 54 70 69.2 55.3 84.3 44.1 96 34.2 108.8 25.6 122.5L5.7 153.4c-2.4 3.9-4.1 8.2-4.3 12.9 0 .2 0 .4-.3.5v3.3c.3.1.3.5.8.4 2.6-.6 5.1-1.4 7.5-2.6l11.9-6.3c2.5-1.4 4.2.1 4.8 2 .8 2.4.9 4.9 1 7.4l.2 7.7c0 1.2.3 2.1 1.4 2.6.4.2.8.4.9.8h.3c.2-.8.4-1.6.5-2.4.5-4.4.5-8.7.7-13.1.1-1.6.6-2.9 1.6-4.1 1.3-1.8 3.1-2.8 5-3.7 2.6-1.3 4.2-3.2 4.8-6l.3-.9c.1-.5.4-.8.8-1.2 6.6-4.7 14-7.8 21.2-11.3 1.2-.6 2.6 0 3.2 1.1.9 1.8 2 3.3 3.2 4.9.4.6.7.6 1.3.1 1.6-1.4 2.8-3 3.5-5 .8-2.2 1.6-4.5 2.3-6.8.2-.7.6-1.1 1.2-1.5l11.2-6.6c2.3-1.5 4.8-2.3 7.4-2.7.6-.1.9 0 1.2.6.8 1.7 1.6 3.3 2 5.1.3 1.2.6 2.6 2.1 2.6 1.4.1 1.7-1.3 2.2-2.3.9-2.2 1.3-4.5 1.9-6.7.8-2.8 2.1-4.9 5.1-6 5.8-2.1 11.6-4.4 17.3-6.8 1.8-.8 3.6-.7 5.4-.4 1.9.3 3.1 1.4 3.6 3.2.3 1.1.6 2.1.7 3.2.2 1.4.4 2.8 1.2 4 .5.8 1.1 1.4 2.1 1.3.9-.2 1.2-1.1 1.3-1.8.1-1.2.8-1.3 1.7-1.2s1.3.6 1.5 1.4c.6 2.2.9 4.5 1.1 6.8.3 3.3.6 6.6 2.5 9.4.3.5.6 1.2 1.2 1.1.7-.1.7-.8.8-1.4.4-2.1.6-4.2.5-6.3l-.5-17.1c0-.5-.1-1 .2-1.4 1.4-2.1 2.6-4.3 3.8-6.4.8-1.4 1.9-2.5 3.6-2.7 2.1-.2 4.2-.8 6.2-1.2 11.9-2.4 23.7-5.8 35.8-7.2.8-.1 1.2.1 1.6.7l6.7 9.5a3.44 3.44 0 0 0 2.1 1.6c1.5.4 2.4-.1 2.4-1.7.1-3.6 1.5-6.8 2.9-10 .1-.3.2-.6.7-.6 1.2 0 1.9.7 2.1 1.9l.3 1.7c1.3 7.3 2.1 14.7 4.3 21.8.4 1.2.7 2.4 1 3.7 1.3-1.2 1.6-2.6 1.7-4 .5-7 .8-14.1 1.1-21.1.1-2-.1-4 .4-5.9v-5.5c-6.3-5.5-12.4-11-18.4-16.6zM74.9 118.1h-.5c.3.9-.2 1.9-1.4 2.3s-2.3.8-3.3 1.6-2.3.4-3.4.1c-1.2-.4-2.3-.5-3.6-.4-3.6.2-7.2-.1-10.7-.2-1.7 0-3.2-.7-4.7-1.3-1.6-.7-1.7-3-.2-3.6 1.7-.6 3.3-1.6 5.1-2l2.3-1.2c4.5-.3 11.7-.3 11.7-.3l8.8 1.8-.1 3.2h0zm104.2-47.3c-.3.2-.6.3-.8.8-.5 1.8-1.9 2.6-3.6 3.1-4.1 1.1-8.1 1.6-12.4 1.3h-3.9c-.3 0-.6 0-.9-.1-2.3-1.6-5-1-7.5-1.7-2.9-.8-3.6-2.2-2.1-4.8.7-1.2 2.3-1.2 3.4-2 .7-.5-1-2.2-1.4-2.5-1-.9-2.2-1.7-3.1-2.7-1.3-1.3-1.1-3.5.4-4.3.9-.5 1.6-1.1 2.6-1.6 2.5-1.1 5.4-1 8.1-.4 6.5 1.4 12.6 3.9 18.4 7.1 1.9 1 3.1 2.5 3.7 4.5.5 1.4.2 2.4-.9 3.3z" fill="#26C540" />  <path d="M51.8 91.4l-3.8.9c-.4.5-.8.9-1.2 1.3l5-2.2zm101.4 38.5v-1.1l-.2-6.5-.5-.5c-.2-.2-.4-.3-.4-.6.1-.3.4-.2.6-.2h.1l-.2-8.4c-.1-.1-.3-.1-.5-.1-2.3.2-4.5-.4-6.7-.3-.9.1-1.6-.1-2.4-.4l9.6-.3c0-.4 0-.8.2-1.2 1.4-2.1 2.6-4.3 3.8-6.4.7-1.2 1.7-2.3 3.1-2.6h-.4c-3.1-.1-6.1 0-9.2.2l-12.1.6-4.1.2-10.3.9-6.7.6-10.3 1.2c-4.1.4-8.3.7-12.3 1.3-5.2.8-10.4.9-15.6 1.1l-11.8.4c-1.9 0-3.8.1-5.7.2-5.4.4-10.8 1-16.3.9-2.6 0-5.2.4-7.7.3-.8 0-1.5.3-1.6 1.1-.2.9.5 1.3 1.3 1.6.3.1.7.1 1 .3.3.1.8-.2.7.4 0 .4-.2.6-.7.6-2.3.3-4.6.8-7 1.1-1.9 2.7-3.6 5.4-5.4 8.3L19 132.8c.3 0 .7 0 1-.1l12.1-.5 11.5-.5 14.2-.5c2.8-.2 5.5 0 8.4-.2 3.8-.3 7.6 0 11.3-.3 1.4-.1 2.8.2 4.2.2 2.9-1.7 5.9-3.4 8.8-5.3 2.3-1.5 4.8-2.3 7.4-2.7.6-.1.9 0 1.2.6.8 1.7 1.6 3.3 2 5.1.2.8.4 1.7 1 2.2.7 0 1.4.1 2.1.1.6-.4.8-1.3 1.1-2 .9-2.2 1.3-4.5 1.9-6.7.8-2.8 2.1-4.9 5.1-6 5.8-2.1 11.6-4.4 17.3-6.8 1.8-.8 3.6-.7 5.4-.4 1.9.3 3.1 1.4 3.6 3.2.3 1.1.6 2.1.7 3.2.2 1.4.4 2.8 1.2 4 .5.8 1.1 1.4 2.1 1.3.9-.2 1.2-1.1 1.3-1.8.1-1.2.8-1.3 1.7-1.2s1.3.6 1.5 1.4c.6 2.2.9 4.5 1.1 6.8.1 1.4.3 2.8.5 4.1 1.1-.1 2.3-.1 3.5-.1h1zm-78.3-11.8h-.5c.3.9-.2 1.9-1.4 2.3s-2.3.8-3.3 1.6-2.3.4-3.4.1c-1.2-.4-2.3-.5-3.6-.4-3.6.2-7.2-.1-10.7-.2-1.7 0-3.2-.7-4.7-1.3-1.6-.7-1.7-3-.2-3.6 1.7-.6 3.3-1.6 5.1-2l2.3-1.2c4.5-.3 11.7-.3 11.7-.3l8.8 1.8-.1 3.2h0zm73.7-49.4c.8-.6 1.9-.7 2.8-1.4.6-.4-.6-1.7-1.1-2.3l-9.4-.4-8.4-.2c-8.3-.1-16.5-.2-24.8-.8-2-.2-4.1-.1-6.1-.3-1-.1-2.1-.1-3.1-.3-3.8-.5-7.6-1-11.5-.7-.6 0-1.3.2-1.2.8.1 1-.6.8-1.2 1-1.3.2-2.7.5-3.9 1.2-.3.2-.5.3-.5.7.1.4.4.5.8.5s.7 0 1-.1c.9-.1 1.8-.4 2.7-.3 4.1.5 8.2.8 12.3.9l15.6.5 8.5.2 20.2.5c2.4.3 4.9.4 7.3.5zm56.3-.2c0-.5-.6-.5-1-.5-3.1-.5-6.2-.7-9.3-.7-.9 0-2.1.3-2.1-1.3 0-.2-.3-.4-.4-.6-1.5-1.2-3.3-1.4-5-1.8-.5-.1-1.1.2-1.5.6-.7.8-1.7 1.2-2.2 2.2-.1.3-.4.5-.8.4-.9-.2-1.9-.2-2.9-.2.2.4.4.8.5 1.3.3.9.2 1.7-.2 2.3h1c.3 0 .6.1.9.1 1.8 0 3.6.6 5.4.7.9 0 1.6-.7 2.4-.5 1.8.4 3.6-.3 4.9 0 3.5.1 6.4-.3 9.4-1.1.3-.4.9-.4.9-.9zm-19.8-16.1h-1.5c-.4 0-.8 0-1.2-.2-.3-.1-.4-.3-.6-.6-.6-1.7-1.5-2.2-3.3-2.2h-6c-.6 0-1-.1-.9-.9.3-1.7-.5-3-2-3.6-.1-.1-.3-.1-.4-.1s-.2-.1-.4-.1c-2.6-.5-5.3-.5-7.9-.7-5.4-.4-10.9-.6-16.3-.8l-4-.3c-.3 0-.5 0-.6-.3-1-1.9-2.8-2.2-4.7-2.2-3.6 0-7.2-1.8-10.8-1.4-2.6.3-5.4.4-8.1.8-3.3.5-6.4 3.5-9.7 3.9-1.6.2-3 .9-3.5 2.6-.4 1.5-2.5.8-.9 1.8-.9.1 1.2 2.3.6 2.3-3.5 0-6.9.3-10.4.8-1.9.3-3.9.6-5.4 1.8-.7.6-1.4.9-2.2 1.1l-4 3.9c.4 0 .8-.1 1.2-.1 5.4-.2 10.7.4 16 1 3.9.4 7.8.3 11.7.5l12.1.5 14.8.8c3.1.2 6.2.3 9.3.4-.4-1.2 0-2.5 1.1-3.1.9-.5 1.6-1.1 2.6-1.6 2.5-1.1 5.4-1 8.1-.4 6.5 1.4 12.6 3.9 18.4 7.1l.9.6c.6-.5 1.2-.5 1.9-.3 1.2.5 2.5 1 3.7 1.4.2.1.6.2.7-.1.2-.3-.1-.5-.3-.6-.4-.4-.8-.8-1.4-1.5 2.3 0 4.3 0 6.3-.2 2.3-.2 3.5-1.6 3-3.8-.2-.8.3-.7.7-.7 1 0 2 0 3.1.1-3.1-1.9-6.4-3.7-9.7-5.6z" class="u" />  <path d="M227.8 80.7c-2.2-2.5-5-4.2-7.4-6.5-4.8-4.4-9.9-8.3-15.3-11.9-15.3-10.1-31.9-17.6-49-24-9.5-3.5-19.1-6.8-29.3-8.2-4.6-.7-9.2-1.5-13.9-1-.9.1-1.7.3-2.4.8-4.1 2.8-7.8 6-11.4 9.3-13.3 12-25.8 24.7-37.8 37.9-12.7 13.9-24.7 28.5-36 43.6-8.8 11.7-16.6 24-22.5 37.4-1.3 3.1-2.8 6.2-2.9 9.7 0 3 1.8 4.7 4.8 4.4.8-.1 1.6-.4 2.4-.8 2.3-1 4.4-2.4 6.6-3.6 3.2-1.7 6.7-2.8 9.9-4.6.4-.2.7-.1 1 .2.5.6 1 1.1 1.2 1.9.5 1.6.6 3.1.5 4.7-.1 3.4-.2 6.8.5 10.2.3 1.1.5 2.2 1.2 3.1.5.7 1.2 1 2.1.9.8-.1 1.2-.7 1.4-1.4.3-.9.5-1.8.7-2.7.5-3.4.5-6.9.5-10.4 0-1.9.4-3.9 1.3-5.5 1-1.8 2.1-3.6 4.5-3.9.6-.1 1.1-.5 1.7-.8 1.8-1 2.2-2.9 2.6-4.7.3-1.5 1.3-2.4 2.5-3.1l14.3-7.7 6-3.3a1.9 1.9 0 0 1 .9-.3c.2.4.2 1.2.3 2.4.2 2.3.5 4.6 1.8 6.5.6.8 2.8 1.5 3.8 1.4 4.8-.4 2.7-3.8 4.5-9 .9-2.7 1.9-5.4 3.6-7.8.3-.4.5-.8 1-1.1 2.4-1.3 4.6-3.1 7.2-4.2 3-1.3 5.8-2.8 8.8-4.3.9-.4 1.3-.2 1.5.7.2 1.1.3 2.1.5 3.2.2 1.3.5 2.6 1.5 3.6 1.5 1.6 3.8 1.3 4.8-.5.5-.8.7-1.8.9-2.7.8-3.2 2.2-6.2 3.8-9 .3-.5.6-.9 1.2-1.2 7.2-2.8 14.4-5.2 21.7-7.6 1.4-.5 2.6.2 3.1 1.6.6 1.4 1 2.8 1.2 4.3.1 1.3.4 2.6 1.1 3.8.5 1.1 1.2 2 2.4 2s2.1-.7 2.9-1.7c.3-.4.4-.8.7-1.2.2-.3.4-.7.9-.6.5 0 .5.5.6.8.2.7.3 1.3.4 1.9l1.5 10.5c.2 1.4.7 2.8 1.4 4.1.5.8 1.2 1.4 2.3 1.3 1-.1 1.4-.8 1.7-1.6.6-1.5 1-3 1.1-4.6.5-6.1.4-12.2.1-18.3-.1-1.2-.3-2.5.3-3.7 1.6-3.8 4.4-6.2 8.3-7.2 11.6-3.1 23.5-4.9 35.3-7.3 3.4-.7 7.2 1 8.2 4.6l.9 2.7c.6 1.7 1.4 3.1 2.8 4.2 1.7 1.4 3.7 1.1 4.9-.7 1.3-1.9 1.7-4 2-6.2.3-1.7.1-3.5.6-5.2.3-.9.6-1.1 1.4-.4.7.6 1.1 1.2 1.3 2 .5 2.3.8 4.6 1.4 6.8.6 2.1.8 4.2 1 6.3.4 3.4.3 6.8.9 10.2.2.9.5 1.7 1 2.4s1.1.8 1.9.6c1.6-.5 2.8-2 3-3.7.7-6.2.4-12.4.8-18.6.3-4.3.2-8.6 0-12.8-.1-.4.2-2.6-3-6.4zm-.2 20.5c-.3 5.3-.5 10.5-.6 15.7 0 .9 0 .9-.5 1.9-.5-1.1-.5-2.1-.6-3.1-.5-5.2-.8-10.3-2-15.4-.3-1.3-.6-2.5-.6-3.8-.1-2.2-1.4-3.8-2.9-5.2-.7-.7-1.7-.4-2.5.2-1.1.7-1.6 1.7-2.1 2.9-.8 1.8-.9 3.8-1.1 5.8-.2 1.3-.4 2.5-1.3 3.6-.5.6-.8.4-1.1-.1-.6-1.1-.9-2.2-1.3-3.4-.8-2.7-2.1-5.1-4.1-7-1.7-1.5-3.4-2.5-5.9-2-10.8 2.4-21.7 4.2-32.5 6.7l-6.9 1.6c-3.6.9-8.9 5.4-8.9 10.9-.1 6.5.6 13.1 0 19.6-.1 1.4-.5 2.8-.9 4.4-.9-1.8-.9-3.6-1.1-5.4-.4-3.2-.7-6.4-1.5-9.6-.4-1.5-1.2-2.8-2.8-3-1.6-.3-2.9.6-3.8 2-.3.4-.5.8-1.1.7-.5-.1-.8-.4-.9-.9-.2-.6-.3-1.3-.4-1.9-.1-1.3-.2-2.7-.4-4.1-.2-2.8-1.9-4.3-4.7-4.3-2.8.1-5.4.9-8 1.8l-12.2 4.2c-5 1.7-7.8 5.4-9.5 10.2-.6 1.6-1 3.3-1.5 4.9-.1.4-.2 1.1-.7 1.1s-.6-.7-.6-1.1c-.2-1.1-.3-2.1-.4-3.2-.1-1.2-.8-2.3-1.2-3.4-.3-.7-1.1-1-1.9-1.1-1.4-.1-2.7.2-4 .7-4.3 1.8-8.1 4.6-12.2 6.9-4.7 2.7-5.9 2.3-7.7 9.7-.5 2.1-1.3 3.9-2.8 5.5-.3.3-.4.8-.8.7-.5-.1-.7-.6-.8-1l-.6-3.6c-.3-1.7-1.7-3-3.1-2.9s-2.7.3-4 1a240.63 240.63 0 0 1-7 3.8l-11.8 6.5c-1.3.7-2.3 1.5-2.9 2.9-.5 1.3-1.2 2.5-1.8 3.7-.5 1.1-1.2 2.1-2.3 2.3-3.8.6-5 3.5-6 6.5-.8 2.2-1.1 4.6-1 7 0 2.7.3 5.4-.2 8.1-.1.5 0 1.1-.6 1.1s-.5-.7-.5-1.1l-.4-11.2c0-1.6-.4-3.2-.8-4.8-.5-2.1-2.5-3.3-4.4-2.7-5.2 1.4-9.9 3.9-14.6 6.5l-3.2 1.8c-.6.3-1.2.5-1.8.5-1.2 0-1.8-.1-1.5-1.6.6-3.6 1.9-7.1 3.4-10.4 5.5-11.8 12.6-22.8 20.3-33.3 10-13.5 20.5-26.4 31.6-39 12.2-13.8 25-26.9 38.5-39.4 5.2-4.8 10.7-9.3 16.7-13.1 1.3-.8 2.8-.4 4.1-.3 8.1.8 16.1 2 23.9 4.4 21 6.5 41.1 15.1 59.8 26.8 7.4 4.7 14.3 10.1 20.6 16.3 1.9 1.8 3.8 3.7 6 5.3.4.3.6.6.6 1 .2 4.8 0 10-.2 15.2zM179 62.5c-1.9-1.4-3.9-2.5-6.2-3.1s-4.4-1.5-6.5-2.4c-5.8-2.5-11.7-3.8-17.9-1.8-2.1.7-3.6 2.2-4.1 4.4-.4 2 .9 3.3 2.4 4.5.4.3.7.5 1.1.7.6.4 1.3.8 1.9 1.2s.6.8.2 1.3c-.6.8-1.4 1.1-2.2 1.6-2.9 1.8-2.9 3.7 0 5.5 1.4.8 2.9 1.4 4.4 1.8 3.9 1.1 7.9.5 11.7 1 2.2-.1 4.1-.3 6.1-.7 2.2-.3 4.3-1.4 6.5-1.8 2.4-.5 4.6-1.5 5.1-4 .5-3.1.3-6.2-2.5-8.2zm-.2 7.5c-.1.3-.3.7-.6.8-1.9 1-3.8 2.2-6.1 2.4-1.6.1-3.2.6-4.8 1-1 .3-1.9.5-2.9.4-3.1-.4-6.1-.1-9.2-.3-2.5-.2-4.8-1.1-7.1-2.1-.9-.4-.7-.8-.1-1.3 1.1-.8 2.4-1.3 3.3-2.5 1.5-1.9 1.3-3.7-.9-5-1.1-.6-2.1-1.2-2.8-2.2-1.2-1.6-.8-3.2 1-4 2.4-1.1 4.7-1.4 7.4-.9 4.1.6 7.8 2 11.6 3.6 3 1.3 5.9 2.7 8.9 3.9 2 1 3.2 4 2.3 6.2zm-105 44.3c-1.4-.6-2.9-.4-4.3-.9-2.8-.8-5.5-1.2-8.1-1-6.5-.3-9.3 1.2-13.6 3.4-.9.4-1.7 1.1-2.3 1.9-.9 1.1-.7 2.5.5 3.2 1 .6 2 1 3.1 1.2 1.8.4 3.6-.3 5.3.2 2 .6 4 .5 6.1.5.7 0 1.5.1 2.2.2 3.7.3 7.3.1 10.9-.9 1.8-.5 2.8-1.9 2.8-3.8.1-2.1-.7-3.2-2.6-4zm-.3 3.6c-.2.6.3 1.5-.9 1.8-3.4.7-6.8.7-10.2.7-4.7-.1-9.5-.3-14.2-.6-.5 0-1-.1-1.2-.6-.2-.4.4-.7.7-.9 3.3-2 6.9-3.3 10.8-3.5h2.6c3-.2 5.8.3 8.6 1.1 1 .3 2.1.3 3 .7.8.3 1 .7.8 1.3z" fill="#076906" />  </g></defs><svg preserveAspectRatio="xMidYMid meet" x="0" y="0" viewBox="0 0 300 300" width="100%"  height="100%"><use href="#Slice_Three"/></svg><svg preserveAspectRatio="xMidYMid meet" x="0" y="0" viewBox="0 0 300 300" width="100%"  height="100%"><use href="#Cheese_Three"/></svg><defs><g id="Tuna_Three">   <path d="M68 111.5c-1 0-2.2-1.2-3-.5l-1.9 1.8-3.9 3.8c-2.5 2.5-4.9 5-7.3 7.7-.6.6-1.1 1.3-1.7 1.9-.8.7-1.6 1.5-2.4 2.2-.5.4-.7.9-.7 1.4-2.6 3-5.3 5.8-8.4 8.4l-11.5-4.1c-2.7-1-3.9 3.4-1.2 4.3l7 2.5 3.2 1.2c1 .4 1.7.5 2.9.2 1-.3 1.9-1.3 2.7-2l2.7-2.4c1.5-1.5 3-3 4.4-4.6s3.4-3.2 4.8-4.8c5.3-4.8 11.2-9.7 16.2-14.8 1.4-1.3.1-2.1-1.9-2.2z" class="w AD" />   <path d="M25 131.3l26.3-27.6 16.4 2.5.9 4.3-29.4 28.7-14-4.8z" fill="#e3c7b9" />   <path d="M37.1 127c-.8.7-.3 1.1.2 1.4.5.4 1.8-.1 1.7-.9s-1.9-.5-1.9-.5zm8.7-11.3c-1.1 1.1-1.1 1.4-1.8 2.9 0 0 1.7-.2 2-1s1.1-1.2 1.7-1.9-.8-1.1-1.9 0zm6.1-12.2c-.3.1-.7-.8-3.4 2.3-2.7 3-15.4 16.6-15.4 16.6s-6.1 5.7-6.3 6.8 2.9 2.3 2.9 2.3c1.7-2.4 2.4-2.9 3.3-3.8s3.3-2.6 4.2-4.1c1-1.4 1.8-2.3 2.6-3.7s1-1.4 3-3.3c2-2 2-1.7 4.3-3.8s2.5-2.8 3.6-4.5 2.1-1.6 3.4-3.3c1.6-1.7-1.8-1.6-2.2-1.5z" fill="#fcddcd" />   <path d="M25.2 132.3c.1-.4.1-.7.2-.9.3-.7.6-1.2-.4-1.7-.7-.4-.4-1.1.2-1.4 1.1-.7 2.2-1.8 3.4-1.8 3 0 5.1-2.1 7.7-2.8 2.5-.6 4.9-1.6 7.5-1.9 1.8-.2 3.7-.1 5.6-.1.2 0 .5.1.4.3-.6 1.3.5 2.3.7 3.4.1.8 0 1.6-.1 2.3-.1.4-.3.8-.8.8-.4.1-.7-.3-.9-.6-.7-1-.8-2.1-1.1-3.2-.4-1.2-.7-1.3-2-1.1-2.5.3-4.7 1.1-6.9 2.3-1.6.8-3.4.4-5.1.9-2.2.7-4 2.2-6.1 3.1-.4.2-.3.5-.2.9l.3 2.2c.1.6 0 1.2-.7 1.4-.6.1-1-.3-1.2-.8-.3-.4-.4-.9-.5-1.3zm37-18.5c0 .8.1 1.7-.5 2.4-.3.4-.6 1.1-1.2.8-.5-.2-.9-.8-.9-1.4v-1.2c.1-.9-.4-1.5-1.3-1.5-2.9.1-5.8-.1-8.5.6-2.9.7-5.7 2-8.5 3-1.2.4-2.4 1-3.6 1.5-.5.2-1.1.3-1.4-.3s.2-.9.7-1.2c2.9-1.6 5.9-2.9 9.1-3.8 2.4-.7 4.8-1.4 7.3-1.6 1.5-.1 2.9-.9 4.6-1.1 2.9-.4 4.3.6 4.2 3.8zm-14.3-6.6c.4.6 1 .3 1.5.2 2.8-.7 5.5-1.8 8.4-2.2 2.6-.3 5.2-.2 7.8-.3 1 0 1.8.3 1.5 1.6-.1.4.2.6.4.9 1.1 1.2 1.1 2.7 1.1 4.2 0 .6-.1.9-1.1.5-1.6-.6-1.7-1.7-1.6-3 0-.9-.6-1.2-1.3-1.4-2.7-.7-5.3-.7-8-.2-4.2.8-8.3 2-12.4 3.5-.4.2-1 .6-1.3-.1-.3-.6.2-.9.6-1.2s.8-.7 1.3-.7c1.4-.2 2.7-2.5 3.1-1.8zm7.6 9.8c-.5 1.2.3 2.3.3 3.4 0 .5.1 1 .1 1.5 0 .6-.3 1.1-.9 1.2-.7.1-1.1-.4-1.3-.9-.3-.7-.5-1.4-.5-2.2-.1-.9-.6-1.3-1.4-1.1-2.9.8-5.9.5-8.8 1.1l-7.2 1.4c-.2 0-.5.1-.7.1-.4 0-.9-.1-1-.6s.3-.7.6-.8c.4-.2.8-.3 1.2-.4l9.5-1.9c2.3-.4 4.6-1 6.9-1.6.9-.2 1.8-.3 2.7.2.3.1.5.2.5.6zm-16.7 11.3c.8.1 1.6-.2 2.5-.2 2.9 0 4 1.7 3.3 4.7-.1.4-.3.8-.4 1.3 0 .3-.1.7-.5.8-.4 0-.5-.4-.6-.7l-.8-2.3c-.2-.9-.6-1.3-1.5-1.5-2.6-.7-4.6.8-6.8 1.5-.5.2-.6.7-.5 1.3l.6 3.1c.1.4.1 1-.5 1.1-.6.2-1-.2-1.2-.7-.5-1.1-.8-2.3-.5-3.5 0-.2.3-.4-.1-.6-.8-.4-.8-.5 0-.9 1.4-.8 2.2-2.3 3.8-2.8 1-.4 2-.8 3.2-.6z" fill="#1012CB" />   <path d="M38.8 138.3l-1-3.9 23.3-22.5c3.3-2.7 6.6-4.6 6.6-4.6l.5 3.6-29.4 27.4z" fill="#ca9b86" />   <path d="M25 136.1c-.3-.1-.6-.3-.7-.6-1.6-4.3-2-3.5.8-7 2.7-3.4 5.6-6.7 8.5-9.9 3.7-4 12.8-12.7 13.5-13.5 1.8-2.1 4.5-2.7 7-2.6 3.1.1 6.1.6 9.2 1.1 1.1.2 2.3.5 3.4.6 1.7.2 2.6 1.2 2.8 2.8 0 .3.1 2.1.1 3.8s-2.7 3.7-4.5 5.2c-5.7 4.7-10.9 10-15.9 15.4-3.1 3.4-6.6 6.4-9.9 9.6a1.23 1.23 0 0 1-1.3.2c-.7-.7-9.5-3.9-13-5.1zm40.7-28.9c-.7-.2-1.1-.3-1.6-.3-3.7-.6-7.5-1.4-11.4-1.7-.8-.1-1.4 0-2 .5-1.7 1.4-3.2 2.9-4.7 4.4-5 5-9.3 10.6-14.4 15.5l-3.3 3.4c-.6.6-.5.9.3 1.3 2.6 1.1 5.3 1.3 7.9 2.3 1 .4 1.7.2 2.5-.5 2.9-2.9 5.6-5.9 8.6-8.7L58.8 113c2.1-2 4.3-3.8 6.9-5.8zm-27.8 30.2c.8 0 1.3-.2 1.7-.6 3.5-3.5 7.1-6.9 10.4-10.6 4.4-4.9 9.1-9.5 14.4-13.4.8-.6 1.6-1.2 2.3-1.9.7-.6.4-1.4.1-1.9s-.8.1-1.1.3c-1.2.7-2.3 1.3-3.4 2.1-4.5 3.8-8.6 7.9-12.8 11.9-3.7 3.5-7.1 7.2-10.5 11-.4.5-1 .9-1.6.6-3.2-1.2-6.6-1.6-9.8-2.9-.4-.2-.9-.7-1.2-.2-.3.4 0 1 .3 1.5a.55.55 0 0 0 .5.3c1.1.5 2.1 1 3.2 1.4 2.5.9 5.1 1.7 7.5 2.4z" fill="#1012CB" /> </g><g id="Gold_Three">  <path d="M100 84l-1.7-.6c-.1 0-.3-.1-.5-.2.7-.1 1.5-.3 2.2-.5 1-.2 2.2-.5 3-1 2.2-1.3 1.7-4.3-.4-5.3-1-.5-2-.4-3.1-.3-1.3.1-2.6.1-3.8.1h-7.2c-1.9 0-3.6-.5-5.5-.7.1-.1.1-.2.2-.2.8-.8 1.8-1.7 2.4-2.8.4-.7.5-1.6 0-2.3-2.3-3.2-7.2-.6-10 .6-3.1 1.3-6.8 2.1-8.2 5.4-.5 1.1.5 2.5 1.6 2.8 1.3.4 2.3-.4 2.8-1.6-.1.3.4-.3.6-.4.1-.1.2-.1.3-.2.1.5.4 1 .9 1.5 1.3 1.2 3.5 1.5 5.3 1.6 1.7.1 3.5-.3 5.2 0 .9.1 1.8.4 2.7.5 1 .1 1.9.1 2.9.1H93c-.4.6-.6 1.2-.6 1.9-.1 1.9 1.2 3.4 2.7 4.2h-.8c-1.2 0-2.4.1-3.6-.1s-2.3-.6-3.5-1c-2.1-.6-5.6-1-7.4.7-1 1-1 2.3-.6 3.5.1.4.3.9.4 1.3h-.7H76c-1.3 0-2.6-.1-3.6-.9-.9-.8-1.6-1.9-2.3-2.9-.4-.6-.9-1.3-1.4-1.8-.4.1-.6-.2-.8-.4h0c.2-.3.4-.7.6-1 .4-.8.8-1.5.7-2.4-.1-1-.7-1.8-1.5-2.3-.6-1-1.1-1.1-2.4-.4-.7.4-2 .8-2.2 1.6-.2.9.4 1.6 1.1 2.1-.5.7-1.1 2-1.1 3.1 0 1.7 1.8 2.5 2.7 3.6 1.7 2.1 2.1 4.5 4.5 5.8 1.5.8 3.4.7 5 .7 1.7 0 3.4.1 5.1 0s3.8-.7 3.9-2.8c0-.8-.3-1.6-.5-2.3l-.3-.9c1 0 2 .2 3 .6 1.7.6 3.4.9 5.2 1 3.6.2 7.3-.3 10.8-1 .9-.2 1.7-1.2 1.7-2.2-.1-2.4-2.2-3.4-4.2-4.2zm-32.4 1.4s0-.1 0 0c.1-.1.1 0 0 0-.1.2-.1.3 0 0zm29-2.1c-.1.1-.2 0 0 0h0z" class="w AD" />  <path d="M102.9 74.5c0 .3.2 1.9.2 2.2-.8 1.1-2.5 1.2-4 .8-.2-.1-.5.2-.7.2-1.5.4-.8.9-2.3 1.3-1.2.3-2 1.7-1.1 2.6.7.7.1.8 1.3-.2.8-.7 1.9-.5 2.8 0 1.8 1 2.7 2.6 2.8 4.6.2 2.6-1.7 4.2-4.2 3.9l-9.2-1.2c-1-.1-2-.2-2.5-1.3-.3-.5-.9-.7-1.5-.8-.4 0-.8.1-1.2-.2-1-.6-1.9-.2-2.5.4-.5.6.1 1.4.5 2 1.2 1.7.6 3.7-1.3 4.5l-1.4.5c-.4 0-.9.1-1.2-.1-2.1-1-4.4-.4-6.6-.6-1.7-.1-1.4-.9-1.1-2.6.3-1.5-1.1-2.2-2.5-2.2-1.5.1-1.5-.8-1.5-1.8 0-.9.2-1.8.8-2.5.7-.9.6-2 1.1-2.9.1-.3 0-.5-.3-.6-1.3-.5-2.1-1.7-2.9-2.8 0-.4 1.4-.8 1.4-1.2.8-1.6 1-2.5 2-4 .6-1 1.8-1.4 3.1-1.4 1.7 0 3.4-1.8 2.8-3.3-.9-2-1-3.4 1-4.3.3-.1.7-.1.8-.5h1c1.5.6 2.7 1.5 3.9 2.6.8.7 3.8 1.4 4.7 1.9 1.1.7-1 1.7-2.1 2.4-.4.2-.7.5-1 .9-.7 1.1-1.9 1.5-3.2 1.1-.4-.1-.7-.2-1.1-.2-1.8.2-2.6 1.6-3.7 2.9.5.2.9.4 1.3.5 2.1.4 4.2.7 6.2 1.7.6.3 3.3.6 3.9-.2.8-1.1.7-2.8 1.4-3.9 1.9-3.2 4.3-2.9 6.3.2.2.4.4.5.9.5 1.4-.1 2.8.1 4.2-.1 1.7-.3 3.6-.3 4.7 1.2z" fill="#D7136F" />  <path d="M84.7 66.5c1 1.5.8 1.8-.5 2.9-1 .9-2.6 1.2-2.9 2.9-.1.4-.9 1.6-1.9 1.3-1.1-.3-1.4-1.9-.4-2.6 1.1-.8 2.1-1.6 2.6-3 .2-.6.9-.9 1.6-1 .3 0 .8.1.7-.5h.8z" fill="#D7136F" />  <path d="M72.7 94.5c-1.3.2-1.9-.8-2.5-1.6-1.1-1.5-1.9-3.2-3.7-4.1-.4-.3-.8-1-1-1.5-.3-.7 0-1.1.7-1.3.8-.2 1.5.1 2 .6 1.1 1.2 2.6 2 3.7 3.1.5.5 1 .6 1.7.5.9-.2 1.9-.1 2.9-.2.9 0 1.2-.4.8-1.4-1-2.3-.3-3.5 2.1-4 1.2-.2 2.4-1.1 3.6-.8 1.8.5 3.8.3 5.6 1 1.5.5 3 .6 4.5.8 1 .1 1.6-.2 1.9-1.2.5-1.4 1.8-1.9 2.8-2.8.8-.7 2.1.1 2.3 1.3.3 1.6.9 3 2 4.2.6.6.4 1.2-.5 1.3s-1.8.2-2.5.9c-.6.6-.7-.1-.8-.4-.4-.9-.8-1.1-1.8-.6-2.1 1.3-4.2 1.5-6.7.7-.7-.2-1.8-.7-2.3-1.3-.9-1.1-2.1-.6-3.3-1.1-1.3-.5-3.6-.4-3.2 1.1.3 1.1.1 2.3.5 3.2.3.8.1.9-.4 1.2-1.7 1-3.5 1.9-5.6 1.7-1 .1-1.8.8-2.8.7z" fill="#D7136F" />  <path d="M96.1 81.4c-.5 1.7-1.4 2.2-2.9 1.6-.9-.4-1.6-1.1-2.3-1.9-.5-.6-1-1.3-2-1.4-.6-.1-.6-.6-.4-1.1.4-1.1 1.5-1.9 2.8-1.9 2.1-.1 4.1-.4 6-1.3.7-.3 1.3-.7 1.8-1.3 1.1-1.4 2.3-1.3 3.3.2.1.1.2.3.3.4 1.8.6.5 1.3 0 1.8-1.3 1.2-3 1.6-4.6 2.1-.9.3-1.8.5-2.8.7-.8.1-1.3.5-1.2 1.3s.6 1.1 1.4 1c.2-.2.4-.2.6-.2z" fill="#dd9713" />  <path d="M73.4 84.3c-1.5-.1-2.8.1-3.7 1.8-.5 1-1.5 1.9-2.8 1.7-.6-.1-1.1-.2-1.3-.8-.2-.5 0-1.2.5-1.5 1.6-.9 1.5-2.8 2.4-4.1.5-.9-1.1-2.4-2.4-2.1-1 .2-1-.2-1-.9 0-1.2-.2-2.2 1-3.2.9-.7.9-2.3 1.3-3.4.1-.4.1-.9.7-1s.8.5 1 .8c.5 1 .4 2.1 0 3.1-.2.5-.5 1.1-.6 1.6-.4 1.2-.4 2.3.8 2.9.2.1.4.3.5.5.9 1.3 1.9 1.1 3.2.6l6.4-2.8c1.6-.6 4.4-.2 5.9-.8.4-.2.4-1.9.8-2 1.9-.5 2.6-1.3 4.3-1.8 1.9-.5 3.9-.4 5.9-.1.3 0 .6.1 1 .2.7 0 .7.4.5.9-.2.6 1.3.2.8.5-1.7 1.1-5.4 3-7.5 3.4-1.4.2-2.6 1-3.9 1.7-3.6 2.1-7.6 3.3-11.6 4.6-.6.2-1.3.2-2.2.2zm-.4-18c0-2.3 2.2-3.7 4.1-2.7.6.3 1.1.9.7 1.8-.3.6-.3 1.2-.1 1.9.2.8.1 1.7-.6 2.2-.8.6-1.8.9-2.8.7-.5-.1-.9-.5-.9-1.1-.1-.9-.6-1.9-.4-2.8z" class="u" />  <path d="M74 88.8c-.5 0-.9-.4-1-.9 0-.6.3-1 .9-1.1.6 0 .9.5.9.9.1.6-.2 1-.8 1.1z" fill="#fef4d3" />  <path d="M64.4 79.6c-.4-.4-.6-1-.5-1.5.1-.3.1-.6.2-.6 1.1-1.6 1.1-3.6 2.2-5.2 1.1-1.5 1.5-2 3.4-1.7.6.1 1.2.2 1.7.1 1.4-.1 1.8-.7 1.6-2l-.9-3.6c-.3-1-.2-1.7.9-2.1.2-.1 3.3-.5 4.8-.5 1.8.3 3.3 1.1 4.2 2.8.4.7.8 1.1 1.6 1 1.5-.2 2.9.8 3.1 2.3.1 1.1-.4 1.7-2 2-1.1.2-1.7.7-1.6 1.9.1 1-.5 1.5-1.5 1.7s-1.9.2-2.8-.2c-.8-.4-1.8-.5-2.6 0-.3.2-.8.2-.6.8.1.4.5.5.9.5.5 0 1.1-.2 1.6.1 1.8.9 3.6 1.1 5.6 1 1.5-.1 2-.7 2-2.2 0-.9 0-1.8.7-2.6 1.1-1.2 2.6-1.8 4.2-2 .8-.1 1.5.2 1.8 1 .2.6.7.9 1.3 1.1 2 .7 4.1 1.5 6.3.5.5-.2 1-.3 1.6-.4 1.1-.2 1.9.2 2.4 1.2.3.7 2.3 3.8-.3 5-2.1 1-4.2 1.9-6.6 2h-.5c-.4.1-.8.3-.7.7.1.5.5.3.8.2.9-.2 1.7-.4 2.6-.3 1.4.1 2.8 1.1 2.9 2.3.1 1 .5 2 1.2 2.7 1.4 1.6.9 3.4-1.4 4-5 1.3-10 1.4-14.8-1.3-1.3-.7-2.8-.9-4.2-1.2-.3-.1-1.2-.1-.8.7.6 1.2.6 2.4.8 3.6.3 2.4-.5 3.1-2.9 2.9-1.7-.1-3.4-.1-5 .3-.9.2-1.8.2-2.7-.1h-.1c-1.3-.5-2.7-1.1-3-2.5-.4-1.8-1.6-2.9-3.1-3.8-2-1.3-2.1-2.9-.3-4.4 1.3-1.1 1.3-1.8.2-3-.7-.2-1.2-.7-1.7-1.2zm19.9-11c-.3-.5-.7-.7-1.1-.5-1 .3-1.6-.1-2.2-.8-.9-1.2-1.9-2.1-3.4-2.8-1.1-.5-2-.5-3.1-.2-.5.1-.7.4-.5 1 .4 1.3.7 2.7 1 4 .3 1-.1 1.8-.9 2.5-1.4 1.2-2.9 1-4.5.9-1-.1-2.7 1.8-2.3 2.7.3.8.1 1.4-.4 1.9-.9.8-.6 1.3.2 2 2.4 1.9 2.6 4.6.5 6.2-1 .8-.6 1 .2 1.5 1.5.9 2.9 1.8 3.4 3.7.4 1.5 1.6 2.2 3.1 1.9 1.8-.4 3.7-.6 5.6-.4.3 0 .7.1.7-.3 0-1 .3-2.2-.7-3-1-.9-1-1.5.1-2.3 2.6-2 5.3-1.3 7.9-.1 4.1 2 8.4 1.9 12.8 1 .6-.1.8-.4.4-1-.4-.7-.7-1.4-.9-2.2-.3-1.4-.8-1.8-2.2-1.5-.5.1-1 .3-1.5.4-1.6.3-2.7-.5-2.8-2.2-.1-1.5.5-2.3 2.6-3 1.8-.6 3.7-.7 5.4-1.7.6-.3.8-.7.5-1.1s-.2-1.5-1.3-1.1c-2.2.8-4.3.6-6.5-.1-1.5-.5-2.9-.9-3.8-2.4-.1-.1-.2-.2-.5-.2-1.3-.1-3 1.5-3 2.7 0 .7-.2 1.4-.5 2-1.3 2.2-4.2 2.6-6.3 1.9-1.7-.6-3.4-1.3-5.2-1.5-1-.2-1.4-1-1.5-1.9s.3-1.4 1.1-1.8c.3-.1.5-.4.8-.6.7-.7 1.6-1.1 2.7-.8.6.2 1.3.4 1.9.5.3.1.8.3.8-.2.2-2 1.9-2.5 3.4-3.1z" fill="#6d3909" />  <path d="M93.4 63.6c.4 2.4 1.4 4.3 4.2 5-2.5.9-2.8 2.9-3.4 5-.5-2.4-1-4.6-4.2-4.7 3.3-.6 3.3-2.9 3.4-5.3z" fill="#f0f0f0" />  <path d="M79.1 94.7c-.3-2-.7-3.6-3-3.8 2.4-.5 2.5-2.2 2.4-4.1.5 1.8 1.2 3.3 3.2 3.8-1 .6-1 .6-2.6 4.1z" fill="#ebebeb" /></g><g id="Beef_Three">   <path d="M126.5 47.4c-.9 1.3-2.7 2.3-4 3.4l-4.4 3.5-4.2 3.4c-1.4 1.1-2.8 2.6-4.5 3.2-3 .9-6.8-.6-9.7-1.5-3.4-1.1-6.7-2.5-9.8-4.2-1.4-.8-2.7 1.4-1.3 2.2 3.5 1.9 7.1 3.4 10.9 4.6 3.2 1 7.2 2.4 10.6 1.4 1.7-.5 3.1-1.8 4.5-2.9l5-4c1.7-1.3 3.3-2.7 5-4 1.4-1.1 3.1-2.2 4.2-3.7.8-1.4-1.4-2.7-2.3-1.4z" opacity=".2" class="v" />   <path d="M88.6 54.5l-1.4-14.8 17.5-12.8 19.8 5.3 1.9 14.6-17.1 14.3z" fill="#F0C311" />   <path d="M88 40.4l11.8 4.1s4.1 1.9 6.1 1.4 6.3-2.9 6.4-3.3c.2-.4 11.6-10.4 11.6-10.4l-20.2-5.4L88 40.4z" fill="#c26b48" />   <path d="M121.9 32.9c-1.8 3.3-5.1 5-7.9 7.3-1.2 1-2.6 1.8-3.1 3.4-.2.5-.6.5-1 .5-1 .1-1.9.4-2.8.9-1.7.9-3.7.9-5.4.3-1.3-.4-2.7-.5-4-.9s-2.5-.6-3.2-2c-.3-.6-.9-1.2-1.8-.3-.5.6-2.3.1-3.1-.8-.7-.8-.8-1.4-.2-2.4 1.3-2.1 3.3-3.2 5.3-4.4 1.5-.9 3.1-1.6 3.7-3.5.1-.4.6-.8 1-1 2.3-1.1 4.5-2.6 7.1-2.8 1.4-.1 2.9.3 4.3.6.2.1.5.3.5.6 0 1.2.8.9 1.5 1 2.1.5 4.4.3 6.2 1.9.2.2.5.3.8.2.9-.6 1.5-.1 2.1.6v.8zm-10.1 2c1.3-.9 2.7-1.1 3.8-2-1.6-1.2-3.2-1.6-5-.5-.5.3-1.4.1-1.4.8 0 1-.6 1.2-1.4 1.4a3.15 3.15 0 0 0-1.5.8c-1.4 1.4-2.9 1.2-4.7.5.5-.4.9-.5 1.4-.5.9-.2 1.8-.4 2.5-1 .4-.4 1.5-.5 1.2-1.2-.3-.6-1.4-.5-2-.2-2.4 1-5.2.7-7.2 2.7-.7.6-1.7.8-2.6 1.2-.6.3-1 .6-.2 1.2 1.4 1.1 2.9 1.4 4.5.7 1.7-.8 3.4-.7 5.1.2-2.1.6-3.8 2.2-6.1 2.4 1.3.4 2.4 1.4 3.9 1 1.3-.3 2.6-.4 3.9-.1 1 .2 2.3.4 2.6-1.2 0-.2.3-.3.5-.3 1.4-.1 2.3-1.2 3.5-1.8 1.4-.7 2.6-1.7 3.8-2.7.3-.2.7-.5.6-.9-.2-.4-.7-.4-1.1-.4-.3 0-.6.1-.9.1-1 .3-2 .3-3.2-.2zm-11.5-2c2.3-.2 4.2-1 6.2-1.4.4-.1.7-.4 1.1-.6s.4-.5 0-.7-.8-.6-1.4-.5c-2.3.2-4.2 1.2-5.9 3.2z" fill="#fecfac" />   <path d="M115.4 56.9c-.3 1.1-3.5 3.6-4.8 3.2.4.7-2.8.9-3.2.3-.5-.7-.6-1.2-.4-2 .1-.7-.5-1.3-1.2-1.8l-3.5-2.4c-.9-.6-1.3-1.4-1.4-2.5 0-1.9-.1-3.7-2-4.9-.7-.4.1-1.4.2-2 0-.4 1-.2 1.4.1 1.8 1.6 4 1.2 6.1 1 1.5-.2 2.3-1.1 3.2-2.1.7-.7 1.4-1.4 2.3-1.7 1-.3 1.8-.9 2.2-1.6 1.4-2.2 3.3-3.6 5.8-4 1.1-.2 1.5-.9 1.9-1.7.7 0 1.4-.9 2.1-.9.8.6 1.8 1.9.7 3.1-.1.1.1.4.2.5.3.5.5 1.1.5 1.8.1.9.3 1.8.9 2.5v.7c-1.6 1.7-.4 3.5 0 5.2.1.4-10.7 8.1-11 9.2zm-8.6-4.9c.2-1.2 0-2.2-1.5-2.4-.5-.1-.9-.3-1.2-.8-.2-.3-.6-.4-1-.2s-.5.6-.4.9c.3.9.6 1.9 1.1 2.7.3.6 1 1 1.5 1.5.6.5 1.5.1 1.5-.7.1-.3 0-.7 0-1z" fill="#F0C311" />   <path d="M86 43.1c1.5-1.9 3.5-1.9 5.5-1.2 1 .3 1.9.8 3 .5.7-.2 1.3.1 1.9.5.3.2.7.5.5.9s-.6-.2-.9.1c.1.3.4.7.2 1-.6 1.3.2 2.2 1 3 .5.5.8 1.1.8 1.7.1 1.5.9 2.8.8 4.3-.1 1 1 1.4 1.5 2.2.3.5.9.9 1.2 1.4.8 1 .4 1.3-.7 1.8-1.1.6-1.9-.3-2.9-.1-.2 0-.5-.1-.5-.3-.2-1.2-1.2-2.1-1.6-3.2-.5-1.3-.3-2.5.3-3.7.8-1.6-.2-3.7-1.9-4.2-.8-.2-1.5-.5-2.2-.9-1-.6-1.8-.9-2.7.2-.4.5-1.3.5-1.4-.2-.2-1.4-1.4-2.1-2-3.2.1-.1.1-.3.1-.6zm3.8-1.2c-.8.2-1.6.4-1.6 1.4 0 .8.7 1.3 1.4 1.2.8-.2 1.9-.4 2-1.4 0-.9-1.1-1-1.8-1.2zm5 14.8c0 1 .8.9.2.9-.9.1-4-.6-4-1-.1-1.2-.8-2.2-1.6-3-.6-.6-.7-1.3-.8-2 0-.4.3-.9.6-.8 1.1.3 1.4-.6 1.8-1.2.4-.4.8-1 1.3-.4.4.5 1.9.8.8 2-.4.5-.5.9.1 1.4 1.4 1.1 1.3 2.9 1.6 4.1z" fill="#733725" />   <path d="M109.3 48.1c1.7 1.8 3.9 2.1 6.3 2 2.6-.1 3.1 2 3.6 4-.4.3-.8.5-1 1-.5.9-1.2 1.3-2.2 1.2.6-1.9-1-3.9-3.3-3.7-.9.1-1.8-.1-2.7-.1l-.7-4.4zm17.5-3.5c-.9-1.5-2.5-1.6-4-1.7-1.9-.2-3.5-2.3-3.2-4.2.1-.3 0-.7.1-1 0-.1.1-.1.2-.1.5 0 .8.4 1.1.7.5.5 1 .8 1.7.8.2 0 .6 0 .7.2.9 1.2 2 .9 3.1.3l.3 5zm-7.2 4.2c-1.4-.7-3.2-.7-4.8-1.3-.9-.3-1.8.4-2.7-.4-.9-.9-1.1-.9-.1-1.8.9-.8 1.3-2.1 2.5-2.8 1-.6 1.6-.9 2.5.4 1.2 1.7 3.3 2.1 5.3 2.1 1 0 1.1.3.8 1.1-.5 1.7-1.8 2.7-3.5 2.7z" fill="#F0C311" />   <path d="M85.3 40.8h0c.6-2.3 2.6-3.4 4.3-4.7 4.2-3.3 8.7-6 12.6-9.6.7-.7 1.5-1 2.4-1h0c.9.2 1.8.3 2.7.5 5 1.1 9.7 3.2 14.9 3.5 3 .2 3.7 1.1 4.2 4 .4 2.9.6 5.8 1 8.7.1.9.4 2.9.6 4 .1.5-.1 1-.4 1.5-.5.6-1 1.3-1.6 1.9-3.1 3.3-6.9 5.6-10.5 8.2-1.9 1.4-3.5 3.3-5.8 4.2-.7.3-1.4.3-2.1.2-.8-.1-1.7-.3-1.9-.3-1.6-.3-3.2-.5-4.7-1-3.6-1.1-7.1-2.4-10.7-3.7-.9-.3-1.6-.8-2.4-1.4-.6-.5-.8-1-.9-1.7-.3-3.5-1.8-12.7-1.7-13.3zm21.3 18.1c1.9.2 3.5-.5 5-1.6 4.5-3.4 8.7-7.1 13-10.7.5-.5.6-1 .5-1.8-.5-3-.8-6-1.5-9-.3-1.5-.2-1.6-1.5-.6s-2.3 2.3-3.8 3.3c-2.5 1.6-4.9 3.3-7 5.4-2.3 2.2-5 2.8-8 2.2-3.3-.6-6.6-1.5-9.7-2.8-1-.4-2.3-.8-3.5-1.2-.9-.3-1.4-.3-1.3.9.1 2.6.3 5.2.5 7.7.2 2.3 1.3 3.8 3.6 4.5 2 .7 4 1.4 6 2 2.5 1 5.1 1.5 7.7 1.7zm-1.7-14c2.2 0 3.8-.5 5.1-1.8 2-1.9 4.2-3.6 6.5-5.1 1.7-1.1 3.2-2.6 4.5-4.1.5-.6.3-.9-.3-1-.9-.3-1.9-.4-2.8-.7-3.9-1.5-7.9-2.4-11.9-3.4-1.4-.4-2.5.1-3.6.9l-8.1 6.1c-1.6 1.2-3.2 2.3-4.7 3.5-.3.2-.8.5-.6 1 .2.2.6.1.9.2 2.3.4 4.4 1.4 6.5 2.2 2.9 1.1 5.9 1.9 8.5 2.2h0z" fill="#62370b" /> </g><g id="Truffle_Three">   <path d="M148.5 90.2c-.3-.4-.6-.6-1.1-.7-.3-.1-.6-.2-.9-.1l-1.6.3c-.3-.3-.7-.4-1.2-.3-2.9 1.2-5.8 2.2-8.9 3-2.8.7-6.1 1.7-8.9.6-1.5-.6-2.2 1.9-.7 2.4 3 1.1 6.3.3 9.3-.4l3.8-1c0 .1.1.1.1.2-.1.1-.2.2-.4.3-1 .8-1.8 1.8-2 3.1-.2 1.2.8 3.1.1 4.1s-2.7 1.3-3.8 1.6l-5.1 1c-.5.1-1 .1-1.4.1 0-.5-.3-.9-.9-1a12.91 12.91 0 0 1-5.6-2.5c-1.7-1.2-3.2-1.8-5.3-1.9-1.5-.1-3.8.1-4.9-1.2-1.2-1.4.2-4.7 1.3-5.9.5-.5.4-1.2.1-1.6.2-1.1-1.2-2.2-2.1-1.2-.2.2-.3.4-.5.5-.5.5-.4 1.1-.1 1.6-.9 1.5-1.5 3.6-1.4 5.5.2 2.2 1.8 3.7 3.9 4.2 2.5.7 5 0 7.2 1.5h.1s0 .1.1.1c.5.6 1.1 1.2 1.7 1.6 1.9 1.6 4 2.6 6.8 2.5 3.4-.2 7.5-.8 10.6-2.4 1.3-.6 2.2-1.8 2.3-3.3.1-1.7-1-3.1.5-4.5 1.2-1.2 2.8-2.1 4.3-2.8h.1c1.2-.3 2.8-.4 3.9-1.1.7-.4 1.2-1.4.6-2.3z" class="w AD" />   <path d="M134.3 79.1c2.1.9 3.7 2.3 4.9 4.2.6.9 1.2 1 2.1.5 2.2-1 4.5-.5 5.6 1.2 1.3 2 .6 4.3-1.6 5.5-1.1.6-2.4.7-3.6 1.1-4.7 1.6-3.4.8-3.9 5.3-.1 1.2 0 2.5-.6 3.6-1.2 1.9-3 2.6-5.1 2.8-1.1.1-2.1.1-3.1.6-1.5.7-3.2.7-4.9.6-1.6 0-3.2 0-4.2-1.4-1-1.3-2.3-2.2-3.3-3.5-.5-.7-1-.8-1.8-.5-2.1.7-4.1.1-5.1-1.6-.8-1.4-.8-3.1.3-4.3.5-.6.8-1.2.7-1.9-.5-2.5 1.2-4.3 3.5-5 .3-.1.5-.1.8-.3 3.5-2.7 7.5-4.3 11.7-5.8 1.1-.4 2.2-.1 3.3-.2.9 0 1.7-.3 2.3-1 .6.1 1.3.1 2 .1z" fill="#11EBF0" />   <path d="M134.3 81.2c.3.4.9.5 1.3.6 1.2.3 1.8 1.1 1.9 2.3.1.9.7 1.1 1.4 1.1 1.3 0 2.6.1 3.8-.2.7-.1 1.3-.2 1.9.2.4.3.7.7.6 1.3-.1.5-.3.9-.8 1-1.4.4-2.7 1.2-4.2 1.5-2.1.5-3.8 1.8-5.1 3.4-1.1 1.3-.8 3.1-.2 4.5.5 1.3 0 1.9-.9 2.4-1.8 1-3.8 1.6-5.8 2-2.4.6-4.2-.9-5.7-2.7-1.2-1.6-2.5-2.7-4.8-2.3-1.2.2-2.5-.3-3.8-.2-.6 0-1-.5-1.1-1-.2-.6-.1-1.3.4-1.6 1.5-.7 1.2-2 1-3.1-.3-1.8.4-3 2.3-3.2 1.4-.2 2.2-1.2 3.3-1.9 1.3-.9 2.5-2 4-2.7 1.2-.5 2.3-1.1 3.7-1 .5 0 1.1 0 1.5-.5l5.3.1z" fill="#11EBF0" />   <path d="M149.3 85.6c.2 1-.1 2.1-.9 2.9-2.7 2.6-6.2 3.9-9.4 5.6-1.1.6-1.3 1.2-.9 2.2.2.7.4 1.4.5 2.1.4 1.7-.1 3-1.4 4.1-1.4 1.1-3.1 1.6-4.8 1.9-2.3.5-4.5 1.1-6.9 1.2-2.7.1-4.7-1-6.4-3-.4-.5-.9-.9-1.3-1.3-.9-.9-1.9-1.2-3.3-1.1-1.8.2-3.7.1-5.3-.9-2.2-1.4-2.7-3-1.6-5.3.4-.6.8-1.2 1.2-1.7.8-1 1-2 0-3-.7-.7-.6-1.5.1-2.2 1.4-1.3 2.8-2.4 4.7-3 1.3-.4 2.7-.9 3.7-1.7 3.2-2.6 6.9-3.8 11-4.3.5-.1 6.2-.3 6.5-.3 1.7.1 3.3.8 3.9 2.3.9 2.2 2.5 2.4 4.4 2.1.2 0 .6-.1.8-.1 3.4-.2 4.1.2 5.4 3.5h0zm-34.8 12.6c1.7-.6 3.4.4 4.9 1.5.7.6 1.3 1.3 1.9 1.9.7.7 1.4 1.3 2.3 1.3 3.9.3 7.7-.7 11.3-2 1.7-.6 1.7-1.2 1.3-3-1.1-3.9-.8-4.5 2.8-6.4.3-.2.7-.3 1-.5l6-3.5c.7-.3 1.4-.7 1.1-1.7s-.8-1.7-1.9-1.6c-1.4.1-2.7.1-4.1.3-1.7.2-2.7-.2-3.4-1.8-.9-2-2.4-2.6-4.5-2.7-3.2 0-6.3.7-9.4 1.3a8.49 8.49 0 0 0-4.1 2.1c-1.7 1.5-3.6 2.5-5.8 3.1-.8.2-1.4.6-2.1 1.1-.6.4-.7.8-.3 1.4.7 1.2.6 2.4-.1 3.7-.4.8-1 1.5-1.5 2.3-.9 1.3-.7 2.1.7 2.8 1.2.5 2.4.5 3.9.4z" fill="#897043" />   <path d="M123.3 93.3c-.5.1-.9-.1-1.1-.7-.3-.6 0-1.1.4-1.4s.8-.5 1.3-.8c.7-.5 1.4-.9 1.5-1.9.1-.6.6-1.1 1.1-1.5.7-.5 1.4-.3 2.1 0 .6.3.5.9.5 1.4-.3 1.9-3.9 4.9-5.8 4.9zm-1 5.5c-.9.1-1.8-.1-2-1.2-.2-.8.7-1.5 1.9-1.8l2.8-.7c1.7-.4 2.8.4 2.5 1.7-.1.4-.3.8-.8 1-1.4.5-2.8 1.1-4.4 1zm-5.4-4.7c-1 0-3.2-1.7-3.3-2.3-.1-.4 0-.9.4-.9.8 0 1.2-.5 1.8-.9s1.2-.7 2-.6c1.7.3 2.4 1.8 1.4 3.2-.6.9-1.5 1.4-2.3 1.5zm17.1 1.5c-1.2.1-1.9-.4-2-1.6 0-.8-.2-1.5-1.2-1.5-.4 0-.8-.3-.8-.8s.3-.7.7-.9c.9-.4 1.7.1 2.6.1.2 0 .4.1.6.2 1.8.3 2 .5 1.3 2.3-.1.2-.1.5-.1.7.2 1.3.1 1.5-1.1 1.5zm-6.3-12.7c.1 1.6-.9 2.1-2 2.6-1.1.4-2.1.2-3-.5-.4-.4-.4-.8-.3-1.2.2-1.1 2.2-2.7 3.4-2.6 1.3 0 1.9.5 1.9 1.7z" fill="#11EBF0" />   <path d="M138.1 84.2c.6 0 1.3.3 1.5 1s-.1 1.3-.8 1.8c-.6.4-1 1-1.6 1.4-.5.4-1.2.4-1.7 0-.6-.5-.5-1 0-1.5.3-.3.3-.6.3-.9.2-1.1 1-1.8 2.3-1.8z" fill="#feecbc" />   <path d="M132 82.8c1.9 0 2.4.4 2.3 1.6 0 .3-.1.5-.3.7-.6.6-3.4.8-4 .2-.7-.6-.6-1.2 0-1.8.5-.6 1.3-.8 2-.7z" fill="#feecba" />   <path d="M121 87.3c0-.7.4-1.1 1-1.1.5 0 1.1.3 1.1 1-.1.6-.5 1.1-1.2 1.1s-.9-.4-.9-1zm11.2 1.4c-.4-.1-.7-.4-.7-.8s.3-.8.8-.8c.4 0 .7.4.6.8 0 .5-.3.7-.7.8z" fill="#feecbc" /> </g></defs><svg preserveAspectRatio="xMidYMid meet" x="0" y="0" viewBox="0 0 300 300" width="100%"  height="100%"><use href="#Tuna_Three"/></svg><svg preserveAspectRatio="xMidYMid meet" x="0" y="0" viewBox="0 0 300 300" width="100%"  height="100%"><use href="#Gold_Three"/></svg><svg preserveAspectRatio="xMidYMid meet" x="0" y="0" viewBox="0 0 300 300" width="100%"  height="100%"><use href="#Beef_Three"/></svg><svg preserveAspectRatio="xMidYMid meet" x="0" y="0" viewBox="0 0 300 300" width="100%"  height="100%"><use href="#Truffle_Three"/></svg></svg>